<?xml version="1.0" encoding="UTF-8"?>
<svg id="Layer_2" data-name="Layer 2" xmlns="http://www.w3.org/2000/svg" viewBox="0 0 274.62 189.39">
  <defs>
    <style>
      .cls-1 {
        fill: #fff;
      }

      .cls-2 {
        fill: #306fc5;
      }

      .cls-3 {
        fill: #202121;
        isolation: isolate;
        opacity: .15;
      }
    </style>
  </defs>
  <g id="Layer_1-2" data-name="Layer 1">
    <g>
      <path class="cls-2" d="M274.62,173.16c0,8.97-7.27,16.23-16.23,16.23H16.23c-8.97,0-16.23-7.27-16.23-16.23V16.23C0,7.27,7.27,0,16.23,0h242.16c8.97,0,16.23,7.27,16.23,16.23v156.92h0Z"/>
      <path class="cls-3" d="M11.54,173.16V16.23C11.54,7.27,18.81,0,27.78,0h-11.54C7.27,0,0,7.27,0,16.23v156.92c0,8.97,7.27,16.23,16.23,16.23h11.54c-8.97,0-16.23-7.27-16.23-16.23Z"/>
      <g>
        <polygon class="cls-1" points="40.01 75.79 48.21 75.79 44.11 65.34 40.01 75.79"/>
        <polygon class="cls-1" points="83.64 110.84 83.64 115.69 97.45 115.69 97.45 120.92 83.64 120.92 83.64 126.51 98.94 126.51 106.02 118.68 99.31 110.84 83.64 110.84"/>
        <polygon class="cls-1" points="191.43 65.34 186.95 75.79 195.53 75.79 191.43 65.34"/>
        <polygon class="cls-1" points="123.55 129.49 123.55 108.23 113.85 118.68 123.55 129.49"/>
        <path class="cls-1" d="M141.83,114.2c-.37-2.24-1.87-3.36-4.11-3.36h-7.83v6.71h8.21c2.24,0,3.73-1.12,3.73-3.35Z"/>
        <path class="cls-1" d="M167.93,116.81c.75-.37,1.12-1.49,1.12-2.61.37-1.49-.37-2.24-1.12-2.61-.74-.37-1.86-.37-2.98-.37h-7.46v5.97h7.46c1.12,0,2.24,0,2.98-.37Z"/>
        <path class="cls-1" d="M221.64,55.65v4.48l-2.24-4.48h-17.53v4.48l-2.24-4.48h-23.87c-4.1,0-7.46.75-10.44,2.24v-2.24h-16.78v2.24c-1.86-1.49-4.1-2.24-7.09-2.24h-60.05l-4.1,9.32-4.1-9.32h-19.02v4.48l-1.86-4.48h-16.41l-7.46,17.53-8.58,19.02-.16.37h19.42l.14-.37,2.24-5.59h4.85l2.24,5.97h21.63v-4.48l1.87,4.47h10.81l1.86-4.47v4.48h51.84v-9.7h.75q.75,0,.75,1.12v8.2h26.85v-2.24c2.24,1.12,5.59,2.24,10.07,2.24h11.19l2.24-5.97h5.22l2.24,5.97h21.63v-5.59l3.36,5.59h17.53v-36.55h-16.78ZM95.21,86.98h-5.97v-20.51l-.37.86h0s-8.68,19.66-8.68,19.66h-5.5l-8.95-20.51v20.51h-12.68l-2.61-5.59h-12.68l-2.61,5.59h-6.56l11.03-26.11h9.32l10.44,24.99v-24.99h9.88l.18.37h.01l4.71,10.24,3.38,7.67.12-.39,7.46-17.9h10.07v26.11h0ZM120.94,66.46h-14.55v4.85h14.17v5.22h-14.17v5.22h14.55v5.59h-20.89v-26.48h20.89v5.59h0ZM147.54,76.08s.02.01.03.02c.14.15.26.3.36.44.71.94,1.29,2.33,1.32,4.37,0,.04,0,.07,0,.11,0,.02,0,.04,0,.06,0,.01,0,.02,0,.03,0,.21.01.42.01.64v5.22h-5.59v-2.98c0-1.49,0-3.73-1.12-5.22-.35-.35-.71-.58-1.1-.75-.56-.36-1.62-.37-3.38-.37h-6.72v9.32h-6.34v-26.11h14.17c3.35,0,5.59,0,7.46,1.12,1.83,1.1,2.93,2.92,2.97,5.8-.09,3.97-2.63,6.15-4.47,6.88,0,0,1.24.25,2.36,1.41ZM160.1,86.98h-6.34v-26.11h6.34v26.11ZM232.83,86.98h-8.21l-11.93-19.77v16.41l-.04-.04v3.41h-6.3v-.02h-6.34l-2.24-5.59h-13.05l-2.24,5.97h-7.09c-2.98,0-6.71-.75-8.95-2.98-2.24-2.24-3.36-5.22-3.36-10.07,0-3.73.75-7.46,3.36-10.44,1.86-2.24,5.22-2.98,9.32-2.98h5.97v5.59h-5.97c-2.24,0-3.35.37-4.85,1.49-1.12,1.12-1.86,3.36-1.86,5.97,0,2.98.37,4.85,1.86,6.34,1.12,1.12,2.61,1.49,4.48,1.49h2.61l8.58-20.51h9.32l10.44,24.99v-24.99h9.32l10.81,18.27v-18.27h6.34v25.73h0,0Z"/>
        <path class="cls-1" d="M142.22,71.74c.11-.12.21-.25.29-.4.34-.53.73-1.5.52-2.81,0-.12-.03-.23-.06-.34,0-.03,0-.06-.01-.09h0c-.19-.64-.66-1.03-1.13-1.27-.75-.37-1.87-.37-2.98-.37h-7.46v5.97h7.46c1.12,0,2.24,0,2.98-.37.11-.06.21-.13.31-.22h0s.04-.04.09-.09Z"/>
        <path class="cls-1" d="M254.83,124.27c0-2.61-.75-5.22-1.86-7.09v-16.78h-.02v-1.12h-17.96c-2.33,0-5.15,2.24-5.15,2.24v-2.24h-17.16c-2.61,0-5.97.75-7.46,2.24v-2.24h-30.58v2.24c-2.24-1.86-6.34-2.24-8.21-2.24h-20.14v2.24c-1.86-1.86-6.34-2.24-8.58-2.24h-22.37l-5.22,5.59-4.85-5.59h-33.56v37.67h32.82l5.39-5.39,4.67,5.39h20.89v-8.58h1.87c2.61,0,5.97,0,8.58-1.12v10.07h16.78v-9.7h.74q1.12,0,1.12,1.12v8.58h50.72c3.36,0,6.71-.75,8.58-2.24v2.24h16.04c3.35,0,6.71-.37,8.95-1.87,3.43-2.06,5.6-5.71,5.92-10.06.02-.13.03-.26.05-.39l-.02-.02c.01-.24.02-.48.02-.72ZM137.35,122.04h-7.46v9.7h-12.26l-7.13-8.21-.02.03-.35-.4-8.2,8.58h-23.87v-26.11h24.24l6.62,7.25,1.39,1.52.19-.2,7.83-8.58h19.77c3.84,0,8.13.95,9.76,4.85.2.77.31,1.63.31,2.61,0,7.46-5.22,8.95-10.81,8.95ZM174.65,121.66c.75,1.12,1.12,2.61,1.12,4.85v5.22h-6.34v-3.36c0-1.49,0-4.1-1.12-5.22-.74-1.12-2.24-1.12-4.47-1.12h-6.71v9.7h-6.34v-26.48h14.17c2.98,0,5.59,0,7.46,1.12,1.86,1.12,3.35,2.98,3.35,5.97,0,4.1-2.61,6.34-4.47,7.09,1.87.74,2.98,1.49,3.36,2.24ZM200.38,110.84h-14.55v4.85h14.17v5.22h-14.17v5.22h14.55v5.59h-20.89v-26.48h20.89v5.59ZM216.05,131.73h-11.94v-5.59h11.94c1.12,0,1.86,0,2.61-.75.37-.37.74-1.12.74-1.86s-.37-1.49-.74-1.86c-.37-.37-1.12-.75-2.24-.75-5.97-.37-13.05,0-13.05-8.2,0-3.73,2.24-7.83,8.95-7.83h12.31v6.34h-11.56c-1.12,0-1.87,0-2.61.37-.74.37-.74,1.12-.74,1.87,0,1.12.74,1.49,1.49,1.86.75.37,1.49.37,2.24.37h3.36c3.36,0,5.59.75,7.09,2.24,1.12,1.12,1.87,2.98,1.87,5.59,0,5.59-3.36,8.21-9.7,8.21ZM248.12,129.12c-1.49,1.49-4.1,2.61-7.83,2.61h-11.93v-5.59h11.93c1.12,0,1.87,0,2.61-.75.37-.37.75-1.12.75-1.86s-.37-1.49-.75-1.86c-.37-.37-1.12-.75-2.24-.75-5.97-.37-13.05,0-13.05-8.2,0-3.54,2.03-6.75,7.03-7.7.6-.08,1.23-.14,1.92-.14h12.31v6.34h-11.56c-1.12,0-1.86,0-2.61.37-.38.37-.75,1.12-.75,1.87,0,1.12.37,1.49,1.49,1.86.75.37,1.49.37,2.24.37h3.36c1.63,0,2.86.2,3.99.6,1.03.37,4.45,1.9,5.22,5.9.07.42.12.85.12,1.34,0,2.24-.75,4.1-2.24,5.59Z"/>
      </g>
    </g>
  </g>
</svg>