<?xml version="1.0" encoding="UTF-8"?>
<svg id="Layer_2" data-name="Layer 2" xmlns="http://www.w3.org/2000/svg" xmlns:xlink="http://www.w3.org/1999/xlink" viewBox="0 0 163.65 196.22">
  <defs>
    <style>
      .cls-1 {
        fill: url(#linear-gradient-2);
      }

      .cls-2 {
        fill: #fff;
      }

      .cls-3 {
        fill: url(#linear-gradient-3);
      }

      .cls-4 {
        fill: url(#linear-gradient);
      }
    </style>
    <linearGradient id="linear-gradient" x1="277.51" y1="282.91" x2="277.51" y2="280.25" gradientTransform="translate(-16972.77 20845.92) scale(61.46 -73.68)" gradientUnits="userSpaceOnUse">
      <stop offset="0" stop-color="#0276ad"/>
      <stop offset="1" stop-color="#22315e"/>
    </linearGradient>
    <linearGradient id="linear-gradient-2" x1="216.43" y1="268.42" x2="219.1" y2="268.42" gradientTransform="translate(-3168.36 4984.05) scale(14.78 -18.12)" gradientUnits="userSpaceOnUse">
      <stop offset="0" stop-color="#89bf56"/>
      <stop offset="1" stop-color="#2e753a"/>
    </linearGradient>
    <linearGradient id="linear-gradient-3" x1="257.5" y1="275.78" x2="260.16" y2="275.78" gradientTransform="translate(-7757.4 8550.76) scale(30.34 -30.62)" gradientUnits="userSpaceOnUse">
      <stop offset="0" stop-color="#70c5ee"/>
      <stop offset="1" stop-color="#1f65a7"/>
    </linearGradient>
  </defs>
  <g id="Layer_1-2" data-name="Layer 1">
    <g id="cyber-essentials">
      <path id="Path_7464" data-name="Path 7464" class="cls-4" d="M81.83,0h0c45.18.02,81.81,36.64,81.83,81.83v105.44c0,4.94-4.01,8.95-8.95,8.95H8.95c-4.94,0-8.95-4.01-8.95-8.95v-105.44C.02,36.64,36.64.02,81.83,0Z"/>
      <path id="Path_7465" data-name="Path 7465" class="cls-1" d="M30.73,97.55s.16,23.22,25.18,48.24l14.19-48.24s-6.95,10.49-19.06,10.49-20.3-10.49-20.3-10.49h0Z"/>
      <g id="Group_8390" data-name="Group 8390">
        <path id="Path_7466" data-name="Path 7466" class="cls-2" d="M18.83,56.47v-16.28h10.92v2.75h-7.94v3.61h7.4v2.74h-7.4v4.43h8.23v2.74h-11.21Z"/>
        <path id="Path_7467" data-name="Path 7467" class="cls-2" d="M31.8,51.18l2.89-.31c.09.88.46,1.71,1.07,2.36.59.53,1.36.8,2.15.76.78.06,1.55-.18,2.17-.67.46-.39.73-.97.73-1.57,0-.35-.1-.7-.31-.98-.29-.33-.65-.57-1.07-.71-.36-.13-1.15-.37-2.38-.71-1.23-.25-2.38-.8-3.36-1.6-.89-.86-1.38-2.04-1.36-3.28,0-.82.22-1.62.64-2.33.43-.72,1.07-1.3,1.84-1.65.91-.4,1.9-.59,2.9-.57,1.51-.12,3.01.36,4.18,1.33.96.95,1.49,2.24,1.47,3.59l-2.97.14c-.05-.68-.34-1.32-.82-1.81-.54-.4-1.21-.6-1.88-.55-.72-.04-1.44.17-2.03.59-.31.24-.49.62-.47,1.01,0,.38.16.74.44.99.83.54,1.76.91,2.73,1.09,1.11.25,2.19.65,3.21,1.17.68.39,1.25.96,1.63,1.65.42.8.62,1.69.59,2.59,0,.92-.24,1.83-.7,2.62-.45.8-1.15,1.44-1.99,1.82-1.01.43-2.1.63-3.2.59-1.56.1-3.1-.41-4.29-1.43-1.08-1.13-1.71-2.6-1.79-4.16h-.02Z"/>
        <path id="Path_7468" data-name="Path 7468" class="cls-2" d="M45.12,51.18l2.89-.31c.09.88.46,1.71,1.07,2.36.59.53,1.36.8,2.15.76.78.06,1.55-.18,2.17-.67.46-.39.73-.97.73-1.57,0-.35-.1-.7-.31-.98-.29-.33-.65-.57-1.07-.71-.36-.13-1.15-.37-2.38-.71-1.23-.25-2.38-.8-3.36-1.6-.89-.86-1.38-2.04-1.36-3.28,0-.82.22-1.62.64-2.33.43-.72,1.07-1.3,1.84-1.65.91-.4,1.9-.59,2.9-.57,1.51-.12,3.01.36,4.18,1.33.96.95,1.49,2.24,1.47,3.59l-2.97.14c-.05-.68-.34-1.32-.82-1.81-.54-.4-1.21-.6-1.88-.55-.72-.04-1.44.17-2.03.59-.31.24-.49.62-.47,1.01,0,.38.16.74.44.99.83.54,1.76.91,2.73,1.09,1.11.25,2.19.65,3.21,1.17.68.39,1.25.96,1.63,1.65.42.8.62,1.69.59,2.59,0,.92-.24,1.83-.7,2.62-.45.8-1.15,1.44-1.99,1.82-1.01.43-2.1.63-3.2.59-1.56.1-3.1-.41-4.29-1.43-1.09-1.12-1.73-2.6-1.81-4.16Z"/>
        <path id="Path_7469" data-name="Path 7469" class="cls-2" d="M59.18,56.47v-16.28h10.92v2.75h-7.94v3.61h7.4v2.74h-7.4v4.43h8.23v2.74h-11.2Z"/>
        <path id="Path_7470" data-name="Path 7470" class="cls-2" d="M72.93,56.47v-16.28h2.89l6.03,10.87v-10.87h2.76v16.28h-2.98l-5.94-10.62v10.62h-2.76Z"/>
        <path id="Path_7471" data-name="Path 7471" class="cls-2" d="M91.49,56.47v-13.53h-4.37v-2.75h11.72v2.75h-4.37v13.53h-2.97Z"/>
        <path id="Path_7472" data-name="Path 7472" class="cls-2" d="M101.07,56.47v-16.28h2.97v16.28h-2.97Z"/>
        <path id="Path_7473" data-name="Path 7473" class="cls-2" d="M120.57,56.47h-3.24l-1.29-3.7h-5.89l-1.21,3.7h-3.16l5.74-16.28h3.15l5.9,16.28ZM115.09,50.03l-2.03-6.04-1.99,6.04h4.02Z"/>
        <path id="Path_7474" data-name="Path 7474" class="cls-2" d="M122.22,56.47v-16.15h2.98v13.41h7.4v2.74h-10.38Z"/>
        <path id="Path_7475" data-name="Path 7475" class="cls-2" d="M133.96,51.18l2.89-.31c.09.88.46,1.71,1.07,2.36.59.53,1.36.8,2.15.76.78.06,1.55-.18,2.16-.67.46-.39.73-.97.73-1.57,0-.35-.1-.7-.31-.98-.29-.33-.65-.57-1.07-.71-.36-.13-1.15-.37-2.38-.71-1.23-.25-2.38-.8-3.36-1.6-.89-.86-1.38-2.04-1.36-3.28,0-.82.22-1.62.64-2.33.43-.72,1.07-1.3,1.84-1.65.91-.4,1.9-.59,2.9-.57,1.51-.12,3.01.36,4.18,1.33.96.95,1.49,2.24,1.47,3.59l-2.97.14c-.05-.68-.34-1.32-.82-1.81-.54-.4-1.21-.6-1.88-.55-.72-.04-1.44.17-2.03.59-.31.24-.49.62-.47,1.01,0,.38.16.74.44.99.83.54,1.76.91,2.73,1.09,1.11.25,2.19.65,3.21,1.17.68.39,1.25.96,1.63,1.65.42.8.62,1.69.59,2.59,0,.92-.24,1.83-.7,2.62-.45.8-1.15,1.44-1.99,1.82-1.01.43-2.1.63-3.2.59-1.56.1-3.1-.41-4.29-1.43-1.09-1.12-1.73-2.6-1.81-4.16Z"/>
      </g>
      <g id="Group_8391" data-name="Group 8391">
        <path id="Path_7476" data-name="Path 7476" class="cls-2" d="M56.92,30.69l2.88,1.01c-.3,1.52-1.07,2.91-2.2,3.96-1.11.89-2.49,1.35-3.91,1.29-1.86.04-3.64-.77-4.82-2.22-1.34-1.72-2.01-3.88-1.89-6.06-.14-2.26.53-4.5,1.9-6.31,1.23-1.48,3.07-2.31,4.99-2.25,1.65-.06,3.25.58,4.39,1.77.75.85,1.27,1.89,1.51,3l-2.94.78c-.13-.77-.52-1.47-1.09-2-.55-.49-1.27-.75-2.01-.73-1.05-.03-2.04.46-2.66,1.3-.79,1.26-1.14,2.73-1.02,4.21-.13,1.54.22,3.07,1,4.4.6.84,1.58,1.33,2.61,1.31.76.01,1.5-.29,2.04-.83.66-.74,1.08-1.65,1.22-2.62Z"/>
        <path id="Path_7477" data-name="Path 7477" class="cls-2" d="M66.23,36.67v-6.85l-5.4-9.43h3.49l3.46,6.44,3.4-6.44h3.43l-5.41,9.45v6.83h-2.96Z"/>
        <path id="Path_7478" data-name="Path 7478" class="cls-2" d="M76.09,20.39h5.89c.87-.02,1.74.03,2.61.16.56.1,1.08.33,1.54.67.47.37.86.83,1.13,1.36.31.59.46,1.24.45,1.9,0,.74-.19,1.46-.56,2.1-.35.62-.88,1.12-1.51,1.43.84.25,1.57.77,2.07,1.48.49.72.74,1.58.72,2.46,0,.74-.16,1.48-.47,2.16-.28.66-.72,1.23-1.28,1.68-.58.44-1.27.7-1.99.77-.5.06-1.69.1-3.59.11h-5.01v-16.28ZM79.07,23.1v3.77h1.95c1.16,0,1.88-.02,2.16-.06.46-.04.89-.25,1.2-.58.3-.35.46-.81.44-1.27.02-.44-.11-.87-.38-1.23-.28-.33-.69-.54-1.12-.57-.29-.04-1.14-.06-2.54-.06h-1.71ZM79.07,29.58v4.35h2.75c.68.02,1.36,0,2.04-.1.43-.08.81-.31,1.08-.65.3-.4.44-.89.42-1.38.01-.44-.1-.87-.32-1.24-.22-.34-.55-.61-.93-.74-.86-.21-1.75-.28-2.64-.23h-2.4Z"/>
        <path id="Path_7479" data-name="Path 7479" class="cls-2" d="M90.94,36.67v-16.28h10.92v2.75h-7.95v3.61h7.4v2.74h-7.4v4.43h8.23v2.74h-11.2,0Z"/>
        <path id="Path_7480" data-name="Path 7480" class="cls-2" d="M104.68,36.67v-16.28h6.26c1.16-.06,2.32.09,3.43.44.73.31,1.34.86,1.71,1.56.44.78.66,1.67.64,2.56.04,1.09-.3,2.16-.97,3.03-.75.85-1.79,1.38-2.91,1.5.6.37,1.14.83,1.6,1.37.64.83,1.2,1.72,1.69,2.64l1.8,3.18h-3.56l-2.15-3.54c-.47-.83-1-1.63-1.57-2.4-.24-.3-.55-.53-.89-.68-.48-.15-.99-.21-1.5-.18h-.6v6.8h-2.97ZM107.65,27.28h2.2c.89.05,1.79-.02,2.66-.2.35-.13.64-.37.83-.69.21-.37.32-.79.3-1.22.02-.48-.12-.95-.4-1.33-.28-.35-.68-.57-1.12-.64-.24-.04-.96-.06-2.17-.06h-2.32v4.13h.01Z"/>
      </g>
      <g id="Group_8392" data-name="Group 8392">
        <path id="Path_7481" data-name="Path 7481" class="cls-2" d="M34.94,171.59l2.88,1.01c-.3,1.52-1.07,2.91-2.2,3.96-1.11.89-2.49,1.35-3.91,1.29-1.86.04-3.64-.77-4.82-2.22-1.34-1.72-2.01-3.88-1.89-6.06-.14-2.26.53-4.5,1.9-6.31,1.23-1.48,3.07-2.31,4.99-2.25,1.65-.06,3.25.58,4.39,1.77.75.86,1.27,1.89,1.5,3.01l-2.94.78c-.13-.77-.52-1.47-1.09-2-.55-.49-1.27-.75-2.01-.73-1.05-.03-2.04.46-2.66,1.3-.79,1.26-1.14,2.73-1.02,4.21-.13,1.54.22,3.07,1,4.4.6.84,1.58,1.33,2.61,1.31.76.01,1.5-.29,2.04-.83.66-.74,1.09-1.65,1.23-2.63Z"/>
        <path id="Path_7482" data-name="Path 7482" class="cls-2" d="M40.38,177.58v-16.28h10.92v2.75h-7.95v3.6h7.4v2.74h-7.4v4.45h8.23v2.74h-11.2Z"/>
        <path id="Path_7483" data-name="Path 7483" class="cls-2" d="M54.93,177.58v-16.28h6.26c1.16-.06,2.32.09,3.43.44.73.31,1.34.86,1.71,1.56.44.78.66,1.67.64,2.56.04,1.09-.3,2.16-.97,3.03-.75.85-1.79,1.38-2.91,1.5.6.37,1.14.83,1.6,1.37.64.83,1.2,1.72,1.69,2.64l1.8,3.18h-3.56l-2.15-3.54c-.47-.83-1-1.63-1.57-2.4-.24-.3-.55-.53-.89-.68-.48-.15-.99-.21-1.5-.18h-.6v6.8h-2.97ZM57.91,168.18h2.2c.89.05,1.79-.02,2.66-.2.35-.13.64-.37.83-.69.21-.37.32-.79.3-1.22.02-.48-.12-.95-.4-1.33-.28-.35-.68-.57-1.12-.64-.24-.04-.96-.06-2.17-.06h-2.32v4.14Z"/>
        <path id="Path_7484" data-name="Path 7484" class="cls-2" d="M73.92,177.58v-13.53h-4.37v-2.75h11.72v2.75h-4.36v13.53h-2.99Z"/>
        <path id="Path_7485" data-name="Path 7485" class="cls-2" d="M84.32,177.58v-16.28h2.97v16.28h-2.97Z"/>
        <path id="Path_7486" data-name="Path 7486" class="cls-2" d="M91.38,177.58v-16.28h10.1v2.75h-7.12v3.86h6.15v2.75h-6.15v6.92h-2.98Z"/>
        <path id="Path_7487" data-name="Path 7487" class="cls-2" d="M104.26,177.58v-16.28h2.97v16.28h-2.97Z"/>
        <path id="Path_7488" data-name="Path 7488" class="cls-2" d="M111.29,177.58v-16.28h10.92v2.75h-7.94v3.6h7.4v2.74h-7.4v4.45h8.23v2.74h-11.2Z"/>
        <path id="Path_7489" data-name="Path 7489" class="cls-2" d="M125.83,161.29h5.44c.94-.03,1.89.07,2.8.31.87.28,1.64.8,2.22,1.5.65.77,1.12,1.67,1.41,2.64.35,1.25.51,2.55.48,3.85.02,1.17-.13,2.34-.45,3.46-.3,1.07-.84,2.05-1.58,2.88-.58.6-1.3,1.04-2.09,1.3-.85.26-1.74.37-2.63.34h-5.59v-16.28ZM128.8,164.05v10.79h2.22c.6.02,1.21-.03,1.8-.15.45-.12.87-.35,1.2-.68.39-.45.65-.99.78-1.57.23-.98.33-1.98.3-2.98.03-.98-.07-1.95-.3-2.9-.15-.58-.44-1.13-.84-1.58-.37-.38-.85-.65-1.38-.77-.81-.13-1.62-.19-2.44-.15h-1.33Z"/>
      </g>
      <path id="Path_7490" data-name="Path 7490" class="cls-3" d="M136.3,78.34c-8.26-11.53-16.41-14.11-23.51-14.11s-24.38,5.98-42.71,33.31c-18.32,27.34-14.19,48.24-14.19,48.24,0,0,7.68-25.48,35.91-48.24,28.23-22.76,44.49-19.21,44.49-19.21h0Z"/>
    </g>
  </g>
</svg>