<?xml version="1.0" encoding="UTF-8"?>
<svg id="Layer_2" data-name="Layer 2" xmlns="http://www.w3.org/2000/svg" xmlns:xlink="http://www.w3.org/1999/xlink" viewBox="0 0 277.65 195.14">
  <defs>
    <style>
      .cls-1 {
        fill: #ea4335;
      }

      .cls-2 {
        stroke-width: .52px;
      }

      .cls-2, .cls-3 {
        fill: none;
        stroke: #5f6368;
      }

      .cls-2, .cls-3, .cls-4 {
        stroke-miterlimit: 10;
      }

      .cls-3 {
        stroke-width: .13px;
      }

      .cls-5 {
        fill: #fbbc04;
      }

      .cls-6 {
        fill: #34a853;
      }

      .cls-4 {
        fill: #fff;
        stroke: url(#linear-gradient);
        stroke-width: 2.26px;
      }

      .cls-7 {
        fill: #4284f4;
      }

      .cls-8 {
        fill: #606469;
      }
    </style>
    <linearGradient id="linear-gradient" x1="0" y1="97.57" x2="277.65" y2="97.57" gradientUnits="userSpaceOnUse">
      <stop offset="0" stop-color="#ea4335"/>
      <stop offset=".29" stop-color="#fbbc04"/>
      <stop offset=".69" stop-color="#34a853"/>
      <stop offset=".97" stop-color="#4284f4"/>
    </linearGradient>
  </defs>
  <g id="Layer_1-2" data-name="Layer 1">
    <g>
      <rect class="cls-4" x="1.13" y="1.13" width="275.39" height="192.89" rx="22.26" ry="22.26"/>
      <g>
        <path class="cls-8" d="M144.99,149.03c3.21-.11,6.43-.1,9.64,0,2.51.02,4.77,1.57,6.16,3.59,1.14,1.75,1.2,3.96.91,5.97-.26,2.05-1.81,3.63-3.41,4.77-2.91,1.8-6.41.97-9.62,1.17-.3,3.38-.02,6.79-.12,10.18-1.19.11-2.38.11-3.56,0,0-8.56-.05-17.13.02-25.69M148.68,152.61c-.28,2.77-.2,5.57-.06,8.35,2.23.01,4.49.18,6.71-.1,3.03-1.04,3.79-5.39,1.35-7.41-2.37-1.52-5.36-.65-8.01-.85M198.71,155.95c.05-1.59-.15-3.22.21-4.79,1.16-.03,2.31-.02,3.47.06.1,1.56,0,3.13.11,4.69,1.2.64,2.78.15,4.13.35.06,1.1.06,2.2.02,3.3-1.4.06-2.8.09-4.19.28-.02,3.33-.04,6.67,0,10-.04.86.36,1.89,1.29,2.1,1.03.1,2.07-.1,3.1-.13.12,1.13,0,2.26-.29,3.36-1.67.1-3.4.33-5.03-.14-1.3-.79-2.64-1.94-2.71-3.59-.36-3.84.11-7.71-.24-11.56-1.06-.17-2.13-.32-3.18-.48,0-1.03.01-2.06.08-3.09,1.06-.11,2.18,0,3.21-.37M164.79,159.58c2.88-5.34,11.97-5.37,14.86,0,.81,1.77.64,3.78.66,5.68-.06,3.17.08,6.34-.06,9.51-.93.06-1.87.05-2.8-.03-.3-.43-.59-.86-.89-1.29-2.12,1.33-4.6,2.77-7.18,1.89-3.73-.56-6.6-4.83-4.96-8.42,1.02-2.78,4.06-3.98,6.79-4.19,1.94-.15,3.8.51,5.71.63-.19-2.25-1.87-4.41-4.3-4.26-2.13-.36-3.92.93-5.32,2.37-.95-.48-1.77-1.17-2.53-1.9M167.78,169.41c.15,1.88,2.19,2.91,3.9,2.8,2.67-.12,4.92-2.46,5.06-5.11-1.47-1.32-3.61-1.39-5.47-1.23-1.8.09-3.72,1.58-3.49,3.54M213.33,157.71c1.69-1.01,3.4-2.3,5.49-2.07,3.57-.34,6.8,2.84,6.82,6.35.05,4.24.02,8.48.02,12.72-1.19.12-2.38.14-3.57.03-.15-4.21.22-8.44-.19-12.64-.21-2.7-3.53-3.53-5.7-2.7-1.9.82-2.98,2.9-2.98,4.91-.08,3.46.04,6.93-.02,10.4-1.23.13-2.46.12-3.69.01-.07-6.15-.08-12.3,0-18.44,1.12-.1,2.25-.13,3.37.06.11.34.34,1.03.45,1.37M232.13,157.35c3.5-2.71,9.02-2.23,11.97,1.1,1.78,2.18,2.64,5.08,2.23,7.89-4.69.15-9.39-.02-14.09.07-.42,3.42,3.13,6.23,6.39,5.65,1.93-.04,3.09-1.73,4.38-2.91,1.12-.13,2.05.71,3.02,1.14-1.88,4.69-8.07,6.59-12.45,4.3-6.49-2.94-6.99-13.11-1.46-17.23M232.21,163.26c3.4.13,6.8.13,10.21,0-.19-2.46-2.67-4.45-5.12-4.16-2.49-.15-4.32,2-5.08,4.15M255.98,155.89c1.31-.44,2.73-.22,4.07.02.12,1.24.13,2.49.11,3.75-1.36-.07-2.74-.43-4.08-.09-1.95.66-3.19,2.72-3.16,4.74-.08,3.45.04,6.91-.02,10.36-1.21.17-2.44.18-3.66.05-.07-6.14-.07-12.29,0-18.43.95-.08,1.91-.11,2.87-.08.3.47.63.92.97,1.38.97-.57,1.89-1.23,2.91-1.7M186.94,158.1c1.33-.75,2.56-1.91,4.17-1.92.85-.06,1.69,0,2.54.04.06,1.13.07,2.26.04,3.4-1.62.25-3.52-.13-4.85,1.06-.87.85-1.71,1.93-1.73,3.21-.14,3.75.08,7.5-.08,11.24-1.17.1-2.35.11-3.51.04-.1-6.16-.08-12.33,0-18.5,1.01-.07,2.04-.09,3.05.08.1.34.29,1.01.38,1.34"/>
        <path class="cls-3" d="M144.99,149.03c3.21-.11,6.43-.1,9.64,0,2.51.02,4.77,1.57,6.16,3.59,1.14,1.75,1.2,3.96.91,5.97-.26,2.05-1.81,3.63-3.41,4.77-2.91,1.8-6.41.97-9.62,1.17-.3,3.38-.02,6.79-.12,10.18-1.19.11-2.38.11-3.56,0,0-8.56-.05-17.13.02-25.69M148.68,152.61c-.28,2.77-.2,5.57-.06,8.35,2.23.01,4.49.18,6.71-.1,3.03-1.04,3.79-5.39,1.35-7.41-2.37-1.52-5.36-.65-8.01-.85M198.71,155.95c.05-1.59-.15-3.22.21-4.79,1.16-.03,2.31-.02,3.47.06.1,1.56,0,3.13.11,4.69,1.2.64,2.78.15,4.13.35.06,1.1.06,2.2.02,3.3-1.4.06-2.8.09-4.19.28-.02,3.33-.04,6.67,0,10-.04.86.36,1.89,1.29,2.1,1.03.1,2.07-.1,3.1-.13.12,1.13,0,2.26-.29,3.36-1.67.1-3.4.33-5.03-.14-1.3-.79-2.64-1.94-2.71-3.59-.36-3.84.11-7.71-.24-11.56-1.06-.17-2.13-.32-3.18-.48,0-1.03.01-2.06.08-3.09,1.06-.11,2.18,0,3.21-.37M164.79,159.58c2.88-5.34,11.97-5.37,14.86,0,.81,1.77.64,3.78.66,5.68-.06,3.17.08,6.34-.06,9.51-.93.06-1.87.05-2.8-.03-.3-.43-.59-.86-.89-1.29-2.12,1.33-4.6,2.77-7.18,1.89-3.73-.56-6.6-4.83-4.96-8.42,1.02-2.78,4.06-3.98,6.79-4.19,1.94-.15,3.8.51,5.71.63-.19-2.25-1.87-4.41-4.3-4.26-2.13-.36-3.92.93-5.32,2.37-.95-.48-1.77-1.17-2.53-1.9M167.78,169.41c.15,1.88,2.19,2.91,3.9,2.8,2.67-.12,4.92-2.46,5.06-5.11-1.47-1.32-3.61-1.39-5.47-1.23-1.8.09-3.72,1.58-3.49,3.54M213.33,157.71c1.69-1.01,3.4-2.3,5.49-2.07,3.57-.34,6.8,2.84,6.82,6.35.05,4.24.02,8.48.02,12.72-1.19.12-2.38.14-3.57.03-.15-4.21.22-8.44-.19-12.64-.21-2.7-3.53-3.53-5.7-2.7-1.9.82-2.98,2.9-2.98,4.91-.08,3.46.04,6.93-.02,10.4-1.23.13-2.46.12-3.69.01-.07-6.15-.08-12.3,0-18.44,1.12-.1,2.25-.13,3.37.06.11.34.34,1.03.45,1.37M232.13,157.35c3.5-2.71,9.02-2.23,11.97,1.1,1.78,2.18,2.64,5.08,2.23,7.89-4.69.15-9.39-.02-14.09.07-.42,3.42,3.13,6.23,6.39,5.65,1.93-.04,3.09-1.73,4.38-2.91,1.12-.13,2.05.71,3.02,1.14-1.88,4.69-8.07,6.59-12.45,4.3-6.49-2.94-6.99-13.11-1.46-17.23M232.21,163.26c3.4.13,6.8.13,10.21,0-.19-2.46-2.67-4.45-5.12-4.16-2.49-.15-4.32,2-5.08,4.15M255.98,155.89c1.31-.44,2.73-.22,4.07.02.12,1.24.13,2.49.11,3.75-1.36-.07-2.74-.43-4.08-.09-1.95.66-3.19,2.72-3.16,4.74-.08,3.45.04,6.91-.02,10.36-1.21.17-2.44.18-3.66.05-.07-6.14-.07-12.29,0-18.43.95-.08,1.91-.11,2.87-.08.3.47.63.92.97,1.38.97-.57,1.89-1.23,2.91-1.7M186.94,158.1c1.33-.75,2.56-1.91,4.17-1.92.85-.06,1.69,0,2.54.04.06,1.13.07,2.26.04,3.4-1.62.25-3.52-.13-4.85,1.06-.87.85-1.71,1.93-1.73,3.21-.14,3.75.08,7.5-.08,11.24-1.17.1-2.35.11-3.51.04-.1-6.16-.08-12.33,0-18.5,1.01-.07,2.04-.09,3.05.08.1.34.29,1.01.38,1.34Z"/>
        <path class="cls-1" d="M101.68,27.79c10.31-10.62,25.31-16.22,40.02-15.66,8.62.58,17.25,2.82,24.62,7.42,3.05,1.91,6.11,3.96,8.54,6.65-2.32,2.72-5.04,5.07-7.51,7.66-2.62,2.52-5.07,5.23-7.77,7.67-4.23-3.84-9.47-6.74-15.18-7.51-5.93-.69-12.19-.41-17.62,2.27-6.04,2.73-11.14,7.43-14.48,13.14-1.15,1.93-1.91,4.06-2.86,6.08-6.03-4.44-11.81-9.19-17.79-13.71,2.35-5.28,5.92-9.99,10.03-14.03"/>
        <path class="cls-5" d="M91.65,41.82c5.97,4.51,11.76,9.27,17.79,13.71-.9,4.32-2.25,8.75-1.42,13.2.25,2.45.98,4.81,1.42,7.23-4.7,3.71-9.48,7.32-14.14,11.09-1.17.94-2.46,1.74-3.78,2.46-3.19-6.46-5.23-13.58-5.44-20.81-.19-4.74-.03-9.53.98-14.18,1.09-4.37,2.31-8.78,4.59-12.69"/>
        <path class="cls-7" d="M139.75,55.93c14.65,0,29.31,0,43.96,0,1.87,0,3.76-.14,5.62.17,3.23,15.92-.29,33.58-10.87,46.14-1.15,1.38-2.26,2.87-3.86,3.76-5.85-4.3-11.45-8.93-17.24-13.32,5.07-3.81,8.98-9.53,9.66-15.93-9.14-.17-18.29.06-27.43-.11-.25-5.41-.02-10.83-.11-16.25.05-1.49-.2-3.03.27-4.47"/>
        <path class="cls-6" d="M95.3,87.04c4.66-3.76,9.44-7.38,14.14-11.09,1.16,2.15,1.89,4.51,3.23,6.56,4.21,6.92,11.1,12.15,18.92,14.27,5.47,1.28,11.22,1.11,16.69-.1,3.23-.83,6.18-2.39,9.08-4,5.79,4.38,11.39,9.02,17.24,13.32-1.41,1.8-3.33,3.07-5.17,4.37-8.72,6.17-19.52,8.63-30.07,8.89-10.64-.22-21.31-3.24-30.09-9.35-7.54-5.13-13.72-12.25-17.75-20.42,1.33-.72,2.61-1.52,3.78-2.46"/>
        <path class="cls-8" d="M22.98,150.99c3.77-2.98,9.14-3.18,13.52-1.58,1.57.74,3.35,1.63,4.1,3.31-.74.81-1.52,1.6-2.37,2.31-1.27-1.03-2.54-2.13-4.12-2.65-3.89-1.15-8.5.03-10.89,3.44-2.02,2.36-2.11,5.68-1.69,8.61.87,4.58,5.57,7.95,10.19,7.54,4.17.04,8.28-3.45,8.27-7.74-3.01-.22-6.02.02-9.03-.12-.47-.94-.43-2.01-.23-3.02,4.22-.42,8.5-.13,12.75-.15.45,3.77-.13,8.02-2.99,10.76-4.66,4.97-13.12,5.03-18.2.68-3.22-2.74-5.08-7.03-4.78-11.26.21-3.97,2.31-7.74,5.47-10.13M110.02,149.14c1.2-.22,2.43-.21,3.64-.14.16,8.52.03,17.04.06,25.57-1.18.44-2.46.2-3.68.16-.09-8.53-.03-17.06-.03-25.58M53.15,155.88c2.66-.57,5.59-.26,7.84,1.37,4.38,2.83,5.55,9.3,2.81,13.66-1.62,3.07-5.19,4.66-8.55,4.68-2.26-.28-4.61-1.02-6.25-2.68-2.75-2.61-3.62-6.84-2.54-10.41.74-3.27,3.52-5.72,6.67-6.62M53.59,159.42c-2.17.72-3.63,2.92-3.74,5.17-.22,2.25.22,4.82,2.15,6.26,2.94,2.61,8.23.96,9.19-2.85.48-2.41.54-5.4-1.48-7.16-1.46-1.76-4.04-2.07-6.12-1.41M73.98,155.94c2.43-.55,5.15-.47,7.33.86,5.12,2.63,6.51,10.04,3.22,14.6-1.69,2.69-4.9,4.13-8,4.21-2.94-.23-6.04-1.49-7.67-4.07-1.65-2.17-1.92-5.04-1.64-7.67.35-3.71,3.28-6.85,6.76-7.94M74.82,159.37c-4.87,1.5-5.48,9-1.44,11.75,2,1.37,5.03,1.37,6.86-.3,2.98-2.32,3.1-7.18.66-9.94-1.46-1.71-4-2.11-6.08-1.51M88.49,162.45c.97-3.88,4.69-7.22,8.83-6.81,2.02-.15,3.65,1.18,5.29,2.13.16-.51.33-1.03.49-1.53,1.08-.07,2.16-.07,3.24,0,.12,5.94.01,11.88.05,17.82.07,2.92-1.15,6.06-3.7,7.66-2.24,1.44-5.04,1.46-7.6,1.17-2.79-.36-5.3-2.46-6.13-5.15.87-.66,1.87-1.5,3.04-1.28,1,1.01,1.83,2.25,3.14,2.91,2.37,1.15,5.42.18,6.91-1.93.85-1.24.78-2.79.8-4.22-1.94,1.24-4.08,2.62-6.49,2.34-2.4-.38-4.94-1.38-6.31-3.51-2.01-2.71-2.42-6.38-1.58-9.6M95.19,159.48c-4.04,1.89-4.56,7.9-1.72,11.03,1.59,1.73,4.38,2.05,6.42.96,3.98-2.45,4.07-9.14.16-11.68-1.46-.81-3.3-.9-4.85-.3M119.4,158.26c1.69-1.76,4.11-2.82,6.57-2.61,3.08-.14,5.95,1.79,7.49,4.37,1.06,1.85,1.13,4.07,1.09,6.15-4.63.57-9.35.02-14.01.26-.41,3.52,3.36,6.41,6.69,5.57,1.9-.19,2.97-1.89,4.11-3.2.98.41,1.93.86,2.88,1.32-.64,2.71-3.37,4.5-5.95,5.16-2.74.84-5.69-.07-8.01-1.59-2.5-1.82-3.45-5.03-3.75-7.96.2-2.66.88-5.55,2.89-7.46M123.44,159.55c-1.6.57-2.33,2.27-2.81,3.77,3.37.04,6.75.06,10.12-.02-.36-1.09-.65-2.32-1.58-3.09-1.56-1.31-3.89-1.39-5.72-.66"/>
        <path class="cls-2" d="M22.98,150.99c3.77-2.98,9.14-3.18,13.52-1.58,1.57.74,3.35,1.63,4.1,3.31-.74.81-1.52,1.6-2.37,2.31-1.27-1.03-2.54-2.13-4.12-2.65-3.89-1.15-8.5.03-10.89,3.44-2.02,2.36-2.11,5.68-1.69,8.61.87,4.58,5.57,7.95,10.19,7.54,4.17.04,8.28-3.45,8.27-7.74-3.01-.22-6.02.02-9.03-.12-.47-.94-.43-2.01-.23-3.02,4.22-.42,8.5-.13,12.75-.15.45,3.77-.13,8.02-2.99,10.76-4.66,4.97-13.12,5.03-18.2.68-3.22-2.74-5.08-7.03-4.78-11.26.21-3.97,2.31-7.74,5.47-10.13M110.02,149.14c1.2-.22,2.43-.21,3.64-.14.16,8.52.03,17.04.06,25.57-1.18.44-2.46.2-3.68.16-.09-8.53-.03-17.06-.03-25.58M53.15,155.88c2.66-.57,5.59-.26,7.84,1.37,4.38,2.83,5.55,9.3,2.81,13.66-1.62,3.07-5.19,4.66-8.55,4.68-2.26-.28-4.61-1.02-6.25-2.68-2.75-2.61-3.62-6.84-2.54-10.41.74-3.27,3.52-5.72,6.67-6.62M53.59,159.42c-2.17.72-3.63,2.92-3.74,5.17-.22,2.25.22,4.82,2.15,6.26,2.94,2.61,8.23.96,9.19-2.85.48-2.41.54-5.4-1.48-7.16-1.46-1.76-4.04-2.07-6.12-1.41M73.98,155.94c2.43-.55,5.15-.47,7.33.86,5.12,2.63,6.51,10.04,3.22,14.6-1.69,2.69-4.9,4.13-8,4.21-2.94-.23-6.04-1.49-7.67-4.07-1.65-2.17-1.92-5.04-1.64-7.67.35-3.71,3.28-6.85,6.76-7.94M74.82,159.37c-4.87,1.5-5.48,9-1.44,11.75,2,1.37,5.03,1.37,6.86-.3,2.98-2.32,3.1-7.18.66-9.94-1.46-1.71-4-2.11-6.08-1.51M88.49,162.45c.97-3.88,4.69-7.22,8.83-6.81,2.02-.15,3.65,1.18,5.29,2.13.16-.51.33-1.03.49-1.53,1.08-.07,2.16-.07,3.24,0,.12,5.94.01,11.88.05,17.82.07,2.92-1.15,6.06-3.7,7.66-2.24,1.44-5.04,1.46-7.6,1.17-2.79-.36-5.3-2.46-6.13-5.15.87-.66,1.87-1.5,3.04-1.28,1,1.01,1.83,2.25,3.14,2.91,2.37,1.15,5.42.18,6.91-1.93.85-1.24.78-2.79.8-4.22-1.94,1.24-4.08,2.62-6.49,2.34-2.4-.38-4.94-1.38-6.31-3.51-2.01-2.71-2.42-6.38-1.58-9.6M95.19,159.48c-4.04,1.89-4.56,7.9-1.72,11.03,1.59,1.73,4.38,2.05,6.42.96,3.98-2.45,4.07-9.14.16-11.68-1.46-.81-3.3-.9-4.85-.3M119.4,158.26c1.69-1.76,4.11-2.82,6.57-2.61,3.08-.14,5.95,1.79,7.49,4.37,1.06,1.85,1.13,4.07,1.09,6.15-4.63.57-9.35.02-14.01.26-.41,3.52,3.36,6.41,6.69,5.57,1.9-.19,2.97-1.89,4.11-3.2.98.41,1.93.86,2.88,1.32-.64,2.71-3.37,4.5-5.95,5.16-2.74.84-5.69-.07-8.01-1.59-2.5-1.82-3.45-5.03-3.75-7.96.2-2.66.88-5.55,2.89-7.46M123.44,159.55c-1.6.57-2.33,2.27-2.81,3.77,3.37.04,6.75.06,10.12-.02-.36-1.09-.65-2.32-1.58-3.09-1.56-1.31-3.89-1.39-5.72-.66"/>
      </g>
    </g>
  </g>
</svg>