<?xml version="1.0" encoding="UTF-8"?>
<svg id="Layer_2" data-name="Layer 2" xmlns="http://www.w3.org/2000/svg" viewBox="0 0 727.27 171.77">
  <defs>
    <style>
      .cls-1 {
        fill: #75c044;
      }
    </style>
  </defs>
  <g id="Layer_1-2" data-name="Layer 1">
    <g>
      <path class="cls-1" d="M171.77,85.88c0,47.43-38.45,85.89-85.89,85.89S0,133.32,0,85.88,38.45,0,85.88,0s85.89,38.45,85.89,85.88ZM51.68,66.63h15.67c.48,0,.83-.39.88-.88,1.27-8.6,8.69-15.21,17.66-15.21s16.38,6.61,17.66,15.21c.06.49.45.88.93.88h15.61c.49,0,.88-.39.88-.88-1.35-18.2-16.54-32.54-35.08-32.54s-33.73,14.34-35.08,32.54c0,.49.39.88.88.88ZM102.74,99.23c10.17-5.58,17.3-16.01,18.21-28.21,0-.48-.39-.88-.88-.88h-15.67c-.49,0-.82.39-.88.88-1.27,8.61-8.69,15.22-17.65,15.22s-16.38-6.61-17.65-15.22c-.04-.51-.39-.88-.88-.88h-15.67c-.48,0-.88.39-.88.88.9,12.19,8.03,22.63,18.2,28.21-10.66,5.84-17.97,17.04-18.29,29.98,0,.49.39.88.88.88h15.58c.49,0,.88-.39.88-.88.46-9.45,8.27-16.97,17.83-16.97s17.38,7.52,17.83,16.97c0,.49.4.88.88.88h15.59c.49,0,.88-.39.88-.88-.32-12.94-7.63-24.13-18.29-29.98Z"/>
      <g>
        <path class="cls-1" d="M284.97,114.48c0,10.5-10.76,14.05-17.07,14.05s-17.08-3.55-17.08-14.05v-57.18c0-10.5,10.77-14.05,17.08-14.05s17.07,3.55,17.07,14.05v57.18ZM267.9,15.54c-30.5.08-44.66,21.48-44.66,39.63v61.42c0,18.17,14.16,39.56,44.66,39.64,30.49-.08,44.66-21.47,44.66-39.64v-61.42c0-18.15-14.17-39.54-44.66-39.63Z"/>
        <polygon class="cls-1" points="463.62 153.72 463.62 100.24 504.83 100.24 504.83 72.83 463.82 72.83 463.82 45.61 511.57 45.61 511.57 18.03 436.1 18.03 436.1 153.72 463.62 153.72"/>
        <path class="cls-1" d="M558.3,60.38l11.02,42.7h-22.25l11.23-42.7ZM582.39,153.72h27.51l-35.97-135.69h-32.18l-35.4,135.69h27.64l6.31-24.04h35.91l6.19,24.04Z"/>
        <polygon class="cls-1" points="386.89 85.78 422.02 18.03 390.15 18.03 370.93 57.54 351.71 18.03 319.83 18.03 354.96 85.78 319.64 153.72 351.88 153.72 370.93 114.31 389.97 153.72 422.21 153.72 386.89 85.78"/>
        <polygon class="cls-1" points="698.63 18.03 674.34 70.23 649.73 18.03 621.47 18.03 621.47 153.73 648.44 153.73 648.44 76.54 665.77 112.62 682.98 112.62 700.3 76.65 700.3 153.73 727.27 153.73 727.27 18.03 698.63 18.03"/>
      </g>
    </g>
  </g>
</svg>