<?xml version="1.0" encoding="UTF-8"?>
<svg id="Layer_2" data-name="Layer 2" xmlns="http://www.w3.org/2000/svg" viewBox="0 0 547.19 184.06">
  <defs>
    <style>
      .cls-1 {
        fill: #488ecb;
      }
    </style>
  </defs>
  <g id="Layer_1-2" data-name="Layer 1">
    <g>
      <g id="Group_8381" data-name="Group 8381">
        <path id="Path_7430" data-name="Path 7430" class="cls-1" d="M21.21,18.98h182.37V0H.28c-1.72,43.86,3.91,84.57,31.03,120.75l21.13-3.99c-20.17-30.21-32.18-61.04-31.23-97.78Z"/>
        <path id="Path_7431" data-name="Path 7431" class="cls-1" d="M160.81,40.56H42.98c3.24,24.82,13.49,48.2,29.55,67.4l14.59-11.4c-6.66-12.52-12.61-23.73-19.05-35.84h68.09c-17.25,43.26-48.07,68.23-92.35,79.62l16.27,16.02c53.62-14.4,100.42-68.25,100.73-115.8Z"/>
        <path id="Path_7432" data-name="Path 7432" class="cls-1" d="M201.77,40.46h-18.42c-10.56,61.55-44.22,104.93-102.26,131.33l20.96,12.27c49.77-20.27,87.71-75.03,97.52-117.61l.06-.17c2.14-8.48,3.61-17.11,4.39-25.82h-2.24Z"/>
      </g>
      <g id="Group_8387" data-name="Group 8387">
        <g id="Group_8385" data-name="Group 8385">
          <g id="Group_8382" data-name="Group 8382">
            <path id="Path_7433" data-name="Path 7433" class="cls-1" d="M226.74,70.52c-.91-2.95-2.23-4.98-5.33-4.98-1.7-.04-3.11,1.31-3.15,3.01,0,.1,0,.2,0,.29,0,2.18,1.48,3.2,4.32,4.52,4.37,2.08,6.55,3.6,6.55,6.96-.25,4.17-3.83,7.35-8,7.1-.1,0-.19-.01-.28-.02-2.1.01-4.17-.47-6.04-1.42-.26-1.47-.72-4.27-.92-5.94l1.48-.26c.92,3.25,2.7,5.89,6.25,5.89,1.87.09,3.46-1.35,3.55-3.22,0-.08,0-.16,0-.23,0-2.29-1.38-3.46-4.07-4.77-3.56-1.73-6.45-3.36-6.45-7.01.24-3.88,3.58-6.84,7.46-6.6.16,0,.31.02.47.04,1.64.06,3.27.29,4.87.66.16,1.2.51,4.4.76,5.63l-1.47.34Z"/>
            <path id="Path_7434" data-name="Path 7434" class="cls-1" d="M251.29,82.47c-1.94,2.81-5.03,4.61-8.43,4.93-5.6-.09-10.08-4.7-9.99-10.31,0-.21.01-.41.03-.62-.05-3.27,1.13-6.45,3.31-8.89,1.89-2.24,4.64-3.59,7.57-3.7,4.3.08,7.75,3.58,7.77,7.87-.06,1.02-.2,1.48-1.02,1.68-1.02.2-7.51.66-13.57.86-.16,6.8,4,9.6,7.6,9.6,2.23-.06,4.35-.98,5.91-2.58l.82,1.16ZM242.55,65.81c-2.34,0-4.63,2.19-5.33,6.3,2.84,0,5.68,0,8.68-.16.92,0,1.23-.26,1.23-1.02.22-2.6-1.7-4.89-4.3-5.12-.09,0-.18-.01-.27-.02Z"/>
            <path id="Path_7435" data-name="Path 7435" class="cls-1" d="M274.26,82.22c-2,2.91-5.18,4.81-8.69,5.18-5.66.01-10.26-4.57-10.27-10.23,0-.15,0-.29,0-.44-.03-3.96,1.89-7.68,5.13-9.95,2.21-1.75,4.91-2.76,7.73-2.9,1.68-.08,3.34.4,4.72,1.37.52.3.83.87.8,1.48-.07,1.07-.8,1.98-1.82,2.29-.26,0-.46-.11-.97-.51-1.38-1.34-3.21-2.1-5.13-2.14-3.36,0-6.3,2.85-6.3,8.13-.62,4.53,2.54,8.71,7.08,9.34.21.03.43.05.64.06,2.38.02,4.64-1.01,6.2-2.8l.89,1.12Z"/>
            <path id="Path_7436" data-name="Path 7436" class="cls-1" d="M301.81,85.62c-2.63.42-5.22,1.01-7.77,1.78v-3.91c-2.04,2.19-4.8,3.58-7.77,3.91-3.41,0-6.35-2.08-6.35-7.6v-9.87c0-2.75-.4-3.05-1.68-3.31l-1.45-.26v-1.32c2.43-.17,4.86-.48,7.26-.91-.15,1.62-.15,4.06-.15,7.41v6.91c0,4.47,2.34,5.74,4.62,5.74,2.08-.07,4.04-.95,5.49-2.44v-11.83c0-2.75-.61-3.11-2.34-3.36l-1.63-.2v-1.32c2.68-.15,5.35-.46,8-.91v17.01c0,2.55.4,2.9,2.34,3l1.42.06v1.42Z"/>
            <path id="Path_7437" data-name="Path 7437" class="cls-1" d="M316.05,86.8h-11.69v-1.43c3.2-.3,3.5-.56,3.5-3.86v-10.57c0-3.36-.2-3.5-3.14-3.86v-1.27c2.47-.37,4.88-1.07,7.17-2.08v5.6c1.77-2.64,3.91-5.43,6.44-5.43,1.43-.19,2.75.83,2.93,2.26,0,.06.01.12.02.18-.06,1.17-.71,2.22-1.72,2.8-.41.3-.97.26-1.33-.1-.54-.73-1.38-1.2-2.28-1.27-1.06,0-2.95,1.58-4.06,4.17v9.54c0,3.36.25,3.6,4.16,3.91v1.41Z"/>
            <path id="Path_7438" data-name="Path 7438" class="cls-1" d="M323.62,86.8v-1.43c3.2-.3,3.56-.56,3.56-4v-10.47c0-3.15-.15-3.36-3.2-3.86v-1.24c2.47-.4,4.88-1.08,7.2-2.03v17.6c0,3.45.36,3.7,3.66,4v1.43h-11.21ZM328.91,58.8c-1.47-.04-2.65-1.22-2.7-2.7-.04-1.51,1.16-2.76,2.67-2.8.02,0,.05,0,.07,0,1.46.03,2.63,1.24,2.6,2.71,0,.03,0,.06,0,.09,0,1.46-1.17,2.66-2.64,2.7Z"/>
            <path id="Path_7439" data-name="Path 7439" class="cls-1" d="M347.1,86.74c-.67.38-1.42.61-2.18.66-3.25,0-4.97-2-4.97-6.04v-14.8h-3.51l-.2-.6,1.38-1.48h2.34v-4.26c.96-1.02,2.43-2.34,3.4-3.36l.76.1c-.1,2.14-.16,5.08-.16,7.51h5.79c.43.67.3,1.56-.3,2.08h-5.48v13.01c0,4.12,1.63,4.88,2.95,4.88,1.08-.03,2.14-.31,3.1-.8l.46,1.32-3.36,1.77Z"/>
            <path id="Path_7440" data-name="Path 7440" class="cls-1" d="M375.97,65.87c-2.65.4-3.2.8-4.47,3.71-1.27,2.91-2.64,6.3-6.15,15.13-1.92,4.55-3.6,9.2-5.03,13.92-.3,1.06-.86,1.32-1.52,1.32-1.51.1-2.84-.95-3.1-2.44,0-.66.36-1.12,1.12-1.78,1.4-.98,2.56-2.27,3.4-3.76,1.07-2.14,1.83-3.91,2.09-4.58.22-.68.18-1.42-.1-2.08-2-5.79-4.73-12.04-6.25-15.7-1.12-2.8-1.58-3.4-4.37-3.76v-1.38h10.26v1.38c-2.34.36-2.59.86-1.93,2.74l4.93,12.5c1.42-3.51,3.46-9.15,4.52-12.35.61-1.93.26-2.49-2.7-2.9v-1.38h9.3v1.38Z"/>
          </g>
          <g id="Group_8383" data-name="Group 8383">
            <path id="Path_7441" data-name="Path 7441" class="cls-1" d="M396.46,86.81v-1.13c2.7-.27,2.84-.5,2.83-3.85v-13.69c-2.62,6.08-6.18,14.11-8.07,18.67h-1.02c-1.74-4.46-4.84-12.25-7.37-18.35-.51,11.34-.53,13.73-.53,14.7.03,1.89.8,2.27,3.26,2.51v1.14h-8.34v-1.13c1.97-.19,2.84-.58,3.11-2.54.17-1.25.26-2.88,1.1-14.75.12-1.72-.17-2.48-3.15-2.76v-1.13h6.75l7.07,16.18,7.34-16.18h6.68v1.12c-2.84.3-3.2.6-3.12,3.2l.21,13.01c.08,3.36.2,3.51,3.1,3.85v1.13h-9.84Z"/>
            <path id="Path_7442" data-name="Path 7442" class="cls-1" d="M427.45,81.13c-.19.92-1.13,4.67-1.46,5.67h-17.29v-1.11c3.15-.28,3.37-.51,3.37-3.36v-13.32c0-2.98-.4-3.18-2.84-3.39v-1.13h10.85c3.43,0,4.7-.03,5.14-.07.04.73.2,3.44.33,5.42l-1.2.18c-.25-1.04-.68-2.03-1.26-2.93-.59-.89-1.2-1.11-3.08-1.11h-2.71c-1.2,0-1.3.08-1.3,1.16v7.37h3.57c2.22,0,2.48-.51,2.95-2.9h1.2v7.38h-1.2c-.5-2.51-.78-2.89-2.99-2.89h-3.53v6.33c0,2.4.4,2.86,2.33,2.9h2.8c2,0,2.43-.27,3.2-1.2.81-1.01,1.48-2.13,2-3.32l1.12.32Z"/>
            <path id="Path_7443" data-name="Path 7443" class="cls-1" d="M447.94,70.17c-.28-1.1-.72-2.15-1.3-3.13-.59-.8-.89-1.07-2.86-1.07h-2.76v16.4c0,2.8.31,3.07,3.46,3.29v1.14h-10.75v-1.13c3.04-.22,3.33-.49,3.33-3.29v-16.4h-2.56c-1.91,0-2.46.26-3.08,1.17-.55.96-.98,1.98-1.28,3.04h-1.2c.22-2.32.44-4.76.54-6.53h.92c.51.8.91.82,1.91.82h13.67c.73.09,1.45-.22,1.88-.82h.92c.02,1.52.16,4.29.33,6.4l-1.16.1Z"/>
            <path id="Path_7444" data-name="Path 7444" class="cls-1" d="M472.71,87.03c-.32,0-.72,0-1.14-.05-3.51-.2-4.8-1-6.06-2.75-1.32-1.82-2.43-3.95-3.56-5.87-.6-1-1.06-1.2-2.46-1.2h-.92v5.2c0,2.84.36,3.04,3.01,3.34v1.1h-9.89v-1.13c2.72-.29,3-.5,3-3.34v-13.41c0-2.8-.36-3.06-3-3.31v-1.13h9.4c2.04-.19,4.1.24,5.89,1.24,1.51,1.01,2.39,2.73,2.32,4.55-.05,2.65-1.81,4.97-4.36,5.73.57,1.04,1.96,3.3,3,4.87.79,1.25,1.68,2.43,2.66,3.55.59.74,1.4,1.28,2.32,1.54l-.19,1.06ZM459.82,75.83c1.26.12,2.52-.21,3.55-.94,1.22-1,1.87-2.54,1.74-4.12.33-2.39-1.33-4.6-3.73-4.93-.26-.04-.52-.05-.78-.04-.58-.07-1.17.05-1.68.34-.27.22-.36.6-.36,1.38v8.3h1.26Z"/>
            <path id="Path_7445" data-name="Path 7445" class="cls-1" d="M474.09,86.81v-1.13c2.7-.26,2.99-.44,2.99-3.34v-13.34c0-2.92-.31-3.13-2.99-3.38v-1.13h9.94v1.13c-2.7.26-3.01.46-3.01,3.38v13.33c0,2.9.3,3.05,3.01,3.34v1.15h-9.94Z"/>
            <path id="Path_7446" data-name="Path 7446" class="cls-1" d="M508.09,81.08c-.53,1.83-1.16,3.62-1.9,5.37-2.06.51-4.18.8-6.3.86-6.3.7-11.97-3.84-12.67-10.14-.05-.43-.07-.86-.07-1.29,0-7.06,5.37-11.87,13.36-11.87,2.18.07,4.35.34,6.48.8.16,1.6.4,3.91.65,5.51l-1.23.23c-.29-2.01-1.59-3.72-3.43-4.56-1.05-.39-2.15-.58-3.27-.56-5.29,0-8,4.17-8,9.69,0,6.43,3.32,10.69,8.4,10.69,3.18,0,5-1.55,6.8-5.18l1.18.44Z"/>
            <path id="Path_7447" data-name="Path 7447" class="cls-1" d="M523.76,69.95c-.64-2.24-1.6-4.61-4.8-4.61-1.81-.09-3.35,1.31-3.44,3.11,0,.13,0,.27,0,.4,0,2.11,1.38,3.27,4.32,4.77,3.88,1.96,5.96,3.65,5.96,6.99-.21,3.93-3.57,6.95-7.5,6.74-.15,0-.29-.02-.44-.04-1.89-.06-3.76-.43-5.53-1.1-.23-.87-.74-3.88-.98-5.6l1.2-.3c.69,2.23,2.42,5.62,5.88,5.62,1.89.14,3.54-1.29,3.68-3.18.01-.17.01-.34,0-.52,0-2.29-1.31-3.41-4.26-5-3.6-1.93-5.77-3.6-5.77-7.02s2.69-6.21,7.55-6.21c1.6.05,3.18.26,4.73.63.14,1.26.33,2.85.6,5.05l-1.2.26Z"/>
          </g>
          <g id="Group_8384" data-name="Group 8384">
            <path id="Path_7448" data-name="Path 7448" class="cls-1" d="M535.38,62.84c-.1-.41-.26-.8-.47-1.16-.22-.3-.33-.4-1.06-.4h-1.03v6.07c0,1.03.12,1.14,1.28,1.2v.4h-4v-.4c1.13-.08,1.24-.18,1.24-1.2v-6.09h-.96c-.71,0-.91.1-1.14.44-.2.36-.36.74-.47,1.13h-.43c.08-.86.17-1.77.2-2.42h.33c.2.3.34.3.72.3h5.07c.27.03.54-.08.69-.3h.34c0,.56.06,1.6.12,2.38l-.43.05Z"/>
            <path id="Path_7449" data-name="Path 7449" class="cls-1" d="M543.58,68.98v-.4c1-.1,1.06-.19,1.05-1.43v-5.08c-.98,2.25-2.29,5.23-2.99,6.92h-.4c-.64-1.66-1.79-4.54-2.73-6.8-.2,4.21-.2,5.09-.2,5.45,0,.7.3.85,1.2.93v.4h-3.09v-.4c.73-.07,1.06-.21,1.15-.95.06-.46.1-1.06.4-5.47.05-.63-.06-.92-1.17-1.02v-.4h2.51l2.62,6,2.72-6h2.48v.4c-1.06.12-1.2.22-1.16,1.2l.08,4.83c.03,1.24.08,1.3,1.15,1.43v.38h-3.61Z"/>
          </g>
        </g>
        <g id="Group_8386" data-name="Group 8386">
          <path id="Path_7450" data-name="Path 7450" class="cls-1" d="M247.14,115c.86-1.55,2.13-2.84,3.66-3.72,1.57-.9,3.35-1.37,5.15-1.34,2.05-.05,4.07.51,5.81,1.6,1.66,1.09,2.92,2.68,3.6,4.55h-3.2c-.5-1.17-1.34-2.16-2.41-2.84-1.15-.69-2.47-1.03-3.8-1-1.34-.02-2.66.32-3.83,1-1.13.66-2.05,1.63-2.66,2.8-1.28,2.7-1.28,5.83,0,8.53.6,1.17,1.52,2.14,2.66,2.8,1.16.68,2.48,1.02,3.83,1,1.33.05,2.65-.27,3.8-.93,1.08-.67,1.93-1.64,2.44-2.8h3.2c-.68,1.85-1.94,3.44-3.6,4.51-1.74,1.08-3.76,1.64-5.81,1.6-1.81.02-3.59-.44-5.15-1.34-1.54-.87-2.8-2.14-3.66-3.69-1.79-3.34-1.79-7.36,0-10.71l-.03-.03Z"/>
          <path id="Path_7451" data-name="Path 7451" class="cls-1" d="M280.77,130.55l-4.85-8.33h-3.2v8.32h-2.66v-20.35h6.57c1.34-.04,2.68.23,3.9.8.99.46,1.83,1.2,2.4,2.14,1.71,2.78.84,6.41-1.94,8.11-.65.4-1.37.67-2.12.79l5.11,8.53-3.2-.02ZM272.72,120.1h3.91c1.18.09,2.35-.29,3.25-1.06.74-.76,1.13-1.79,1.08-2.85.06-1.04-.33-2.06-1.07-2.8-.92-.73-2.08-1.08-3.25-.99h-3.92v7.71Z"/>
          <path id="Path_7452" data-name="Path 7452" class="cls-1" d="M291.2,112.35v6.8h7.41v2.2h-7.41v7.01h8.29v2.19h-10.95v-20.4h10.95v2.19h-8.29Z"/>
          <path id="Path_7453" data-name="Path 7453" class="cls-1" d="M316.35,111.44c1.58.77,2.88,2.01,3.74,3.55.89,1.67,1.34,3.54,1.3,5.43.05,1.89-.4,3.75-1.3,5.41-.86,1.53-2.16,2.75-3.74,3.51-1.8.84-3.77,1.25-5.76,1.2h-6.33v-20.34h6.33c1.99-.05,3.97.38,5.76,1.24ZM316.6,126.27c1.46-1.59,2.21-3.7,2.07-5.85.13-2.17-.62-4.31-2.08-5.92-1.62-1.51-3.79-2.28-6-2.14h-3.7v16h3.68c2.21.16,4.38-.6,6.02-2.08Z"/>
          <path id="Path_7454" data-name="Path 7454" class="cls-1" d="M328.28,110.2v20.35h-2.66v-20.35h2.66Z"/>
          <path id="Path_7455" data-name="Path 7455" class="cls-1" d="M346.08,110.2v2.16h-5.57v18.19h-2.66v-18.19h-5.57v-2.16h13.8Z"/>
          <path id="Path_7456" data-name="Path 7456" class="cls-1" d="M358.94,115c.86-1.55,2.13-2.83,3.66-3.72,1.57-.9,3.35-1.37,5.15-1.34,2.05-.05,4.07.51,5.81,1.6,1.66,1.09,2.92,2.68,3.6,4.55h-3.18c-.51-1.17-1.36-2.16-2.43-2.84-1.15-.69-2.47-1.03-3.81-1-1.34-.02-2.66.33-3.83,1-1.13.66-2.05,1.63-2.66,2.8-1.28,2.7-1.28,5.83,0,8.53.6,1.17,1.52,2.14,2.66,2.8,1.16.67,2.48,1.02,3.83,1,1.33.05,2.65-.27,3.81-.93,1.07-.67,1.92-1.64,2.44-2.8h3.18c-.68,1.85-1.94,3.44-3.6,4.51-1.74,1.09-3.76,1.64-5.81,1.6-1.81.02-3.59-.44-5.15-1.34-1.53-.87-2.8-2.15-3.66-3.69-1.79-3.34-1.79-7.36,0-10.71v-.03Z"/>
          <path id="Path_7457" data-name="Path 7457" class="cls-1" d="M393.9,126.02h-8.89l-1.63,4.52h-2.8l7.36-20.23h3.07l7.33,20.23h-2.8l-1.64-4.52ZM393.14,123.86l-3.68-10.28-3.68,10.28h7.36Z"/>
          <path id="Path_7458" data-name="Path 7458" class="cls-1" d="M412.99,130.55l-4.85-8.32h-3.2v8.32h-2.66v-20.35h6.57c1.34-.04,2.68.23,3.9.8.99.46,1.83,1.2,2.4,2.14.54.93.82,1.99.8,3.07.02,1.34-.4,2.64-1.2,3.71-.91,1.13-2.2,1.89-3.64,2.13l5.11,8.53-3.23-.02ZM404.92,120.1h3.91c1.18.09,2.35-.29,3.25-1.06.74-.76,1.13-1.79,1.08-2.85.06-1.04-.32-2.06-1.06-2.8-.92-.73-2.09-1.08-3.26-.99h-3.91v7.71Z"/>
          <path id="Path_7459" data-name="Path 7459" class="cls-1" d="M432.86,111.44c1.58.78,2.88,2.01,3.74,3.55.89,1.67,1.34,3.54,1.3,5.43.05,1.89-.4,3.75-1.3,5.41-.86,1.52-2.16,2.75-3.74,3.51-1.8.84-3.78,1.25-5.77,1.2h-6.33v-20.34h6.33c2-.05,3.97.38,5.77,1.24ZM433.1,126.27c1.46-1.59,2.21-3.7,2.07-5.85.42-4.03-2.51-7.64-6.54-8.06-.51-.05-1.03-.05-1.55,0h-3.68v16h3.68c2.2.15,4.37-.6,6.01-2.08Z"/>
          <path id="Path_7460" data-name="Path 7460" class="cls-1" d="M453.49,130.04c-1-.43-1.86-1.12-2.5-2-.6-.86-.93-1.89-.93-2.94h2.84c.09.92.52,1.77,1.2,2.4.84.71,1.93,1.06,3.03.98,1.08.06,2.14-.28,2.99-.95.72-.61,1.12-1.51,1.1-2.45.03-.69-.2-1.37-.64-1.9-.44-.49-.98-.88-1.6-1.11-.85-.31-1.71-.58-2.59-.8-1.1-.27-2.18-.62-3.23-1.06-.82-.36-1.54-.93-2.07-1.65-.61-.88-.92-1.95-.86-3.02-.02-1.05.28-2.07.85-2.95.59-.88,1.42-1.58,2.4-2,1.11-.48,2.31-.72,3.52-.7,1.68-.07,3.33.43,4.68,1.43,1.2.91,1.95,2.29,2.06,3.8h-2.92c-.12-.82-.57-1.56-1.23-2.06-.82-.63-1.83-.94-2.86-.89-.98-.04-1.94.26-2.72.86-.7.59-1.09,1.48-1.05,2.4-.03.66.2,1.31.63,1.82.42.47.95.84,1.54,1.06.61.24,1.48.52,2.58.83,1.1.29,2.19.66,3.24,1.1.83.37,1.55.94,2.1,1.66.63.89.93,1.96.88,3.05,0,.99-.28,1.96-.8,2.8-.56.92-1.37,1.66-2.33,2.14-1.13.56-2.38.83-3.65.8-1.25.05-2.49-.17-3.65-.65Z"/>
          <path id="Path_7461" data-name="Path 7461" class="cls-1" d="M480.55,126.02h-8.88l-1.63,4.53h-2.8l7.36-20.23h3.07l7.33,20.23h-2.8l-1.64-4.53ZM479.79,123.86l-3.68-10.28-3.68,10.28h7.36Z"/>
          <path id="Path_7462" data-name="Path 7462" class="cls-1" d="M500.42,110.2v2.16h-8.84v6.86h7.2v2.16h-7.2v9.17h-2.66v-20.35h11.5Z"/>
          <path id="Path_7463" data-name="Path 7463" class="cls-1" d="M507.03,112.35v6.8h7.42v2.2h-7.42v7.01h8.3v2.19h-10.95v-20.4h10.95v2.19h-8.3Z"/>
        </g>
      </g>
    </g>
  </g>
</svg>