<?xml version="1.0" encoding="UTF-8"?>
<svg id="Layer_2" data-name="Layer 2" xmlns="http://www.w3.org/2000/svg" viewBox="0 0 500.43 171.18">
  <g id="Layer_1-2" data-name="Layer 1">
    <g>
      <g id="Group_8374" data-name="Group 8374">
        <path id="Path_7395" data-name="Path 7395" d="M19.72,17.65h169.59V0H.26c-1.6,40.78,3.65,78.64,28.86,112.29l19.61-3.71c-18.74-28.09-29.9-56.76-29.02-90.93Z"/>
        <path id="Path_7396" data-name="Path 7396" d="M149.52,37.71H39.96c3.01,23.08,12.55,44.82,27.49,62.67l13.57-10.6c-6.19-11.64-11.73-22.06-17.72-33.33h63.31c-16.07,40.23-44.72,63.45-85.91,74.04l15.13,14.9c49.87-13.39,93.39-63.47,93.68-107.68Z"/>
        <path id="Path_7397" data-name="Path 7397" d="M187.62,37.63h-17.13c-9.82,57.24-41.12,97.58-95.09,122.13l19.48,11.42c46.29-18.85,81.57-69.77,90.69-109.37l.05-.16c1.99-7.89,3.36-15.92,4.08-24.03h-2.08Z"/>
      </g>
      <g>
        <g id="Group_8378" data-name="Group 8378">
          <g id="Group_8375" data-name="Group 8375">
            <path id="Path_7398" data-name="Path 7398" d="M211.68,66.22c-.83-2.66-2.01-4.49-4.81-4.49-1.54-.04-2.81,1.18-2.85,2.72,0,.09,0,.18,0,.26,0,1.97,1.33,2.88,3.89,4.07,3.94,1.87,5.91,3.24,5.91,6.27-.23,3.76-3.47,6.61-7.22,6.38-.08,0-.16-.01-.24-.02-1.89.01-3.76-.43-5.45-1.28-.22-1.33-.64-3.85-.82-5.35l1.32-.23c.83,2.93,2.43,5.31,5.63,5.31,1.68.08,3.12-1.21,3.2-2.9,0-.07,0-.14,0-.22,0-2.06-1.23-3.11-3.66-4.3-3.2-1.56-5.81-3.02-5.81-6.32.21-3.49,3.21-6.16,6.71-5.95.14,0,.29.02.43.04,1.48.06,2.96.26,4.4.59.13,1.08.45,3.96.68,5.08l-1.33.32Z"/>
            <path id="Path_7399" data-name="Path 7399" d="M233.8,76.99c-1.75,2.53-4.53,4.16-7.6,4.44-5.05-.08-9.08-4.23-9-9.28,0-.19.01-.38.03-.57-.05-2.95,1.01-5.81,2.97-8.01,1.7-2.02,4.18-3.23,6.82-3.34,3.87.07,6.98,3.22,7,7.09-.04.92-.18,1.33-.91,1.51-.92.18-6.78.59-12.23.77-.13,6.13,3.6,8.65,6.87,8.65,2-.06,3.9-.89,5.31-2.32l.74,1.04ZM225.92,61.97c-2.1,0-4.16,1.97-4.81,5.68,2.57,0,5.13,0,7.83-.14.83,0,1.08-.23,1.08-.92.21-2.34-1.52-4.4-3.86-4.61-.08,0-.16-.01-.24-.01h0Z"/>
            <path id="Path_7400" data-name="Path 7400" d="M254.5,76.76c-1.8,2.62-4.66,4.33-7.82,4.67-5.1.01-9.25-4.11-9.26-9.22,0-.13,0-.26,0-.4-.03-3.57,1.7-6.92,4.62-8.97,1.99-1.58,4.42-2.49,6.95-2.61,1.52-.08,3.02.36,4.26,1.23.47.27.75.79.72,1.33-.07.97-.72,1.79-1.65,2.06-.23,0-.41-.1-.87-.46-1.24-1.2-2.89-1.89-4.62-1.92-3.02,0-5.68,2.57-5.68,7.33-.56,4.08,2.29,7.85,6.37,8.41.19.03.39.05.58.06,2.14.01,4.18-.91,5.58-2.52l.8,1.01Z"/>
            <path id="Path_7401" data-name="Path 7401" d="M279.32,79.82c-2.37.38-4.71.91-7.01,1.6v-3.52c-1.84,1.98-4.32,3.23-7,3.52-3.06,0-5.72-1.87-5.72-6.85v-8.9c0-2.48-.36-2.75-1.51-2.98l-1.28-.23v-1.19c2.2-.16,4.38-.43,6.55-.82-.14,1.46-.14,3.66-.14,6.68v6.23c0,4.03,2.1,5.17,4.17,5.17,1.87-.07,3.64-.85,4.94-2.2v-10.66c0-2.48-.54-2.8-2.1-3.03l-1.46-.18v-1.19c2.41-.14,4.81-.41,7.19-.82v15.33c0,2.3.36,2.61,2.1,2.7l1.29.05v1.28Z"/>
            <path id="Path_7402" data-name="Path 7402" d="M292.15,80.88h-10.53v-1.29c2.88-.27,3.16-.5,3.16-3.48v-9.52c0-3.02-.18-3.16-2.83-3.48v-1.15c2.22-.34,4.39-.97,6.45-1.87v5.04c1.6-2.38,3.52-4.9,5.81-4.9,1.3-.16,2.48.75,2.65,2.05,0,.05.01.1.01.15-.05,1.05-.64,2-1.56,2.52-.36.27-.87.24-1.19-.09-.49-.66-1.24-1.07-2.06-1.15-.97,0-2.66,1.42-3.66,3.76v8.6c0,3.02.23,3.24,3.76,3.52v1.27Z"/>
            <path id="Path_7403" data-name="Path 7403" d="M298.97,80.88v-1.29c2.88-.27,3.2-.5,3.2-3.6v-9.44c0-2.84-.14-3.02-2.88-3.48v-1.12c2.23-.36,4.41-.97,6.51-1.83v15.85c0,3.11.31,3.34,3.29,3.6v1.29h-10.12ZM303.73,55.66c-1.32-.05-2.38-1.11-2.43-2.43-.03-1.36,1.06-2.49,2.42-2.52.02,0,.04,0,.05,0,1.32.03,2.36,1.11,2.34,2.43,0,.03,0,.06,0,.09,0,1.32-1.05,2.4-2.37,2.43h0Z"/>
            <path id="Path_7404" data-name="Path 7404" d="M320.13,80.83c-.6.34-1.28.55-1.97.59-2.93,0-4.48-1.8-4.48-5.44v-13.33h-3.16l-.19-.54,1.24-1.33h2.1v-3.84c.87-.92,2.2-2.1,3.06-3.02l.69.09c-.1,1.92-.14,4.58-.14,6.77h5.2c.39.61.27,1.41-.27,1.87h-4.93v11.72c0,3.72,1.46,4.4,2.66,4.4.97-.03,1.93-.28,2.79-.72l.41,1.19-3.03,1.59Z"/>
            <path id="Path_7405" data-name="Path 7405" d="M346.14,62.02c-2.38.36-2.88.72-4.03,3.34-1.15,2.62-2.38,5.68-5.53,13.63-1.73,4.1-3.25,8.28-4.53,12.54-.27.96-.78,1.19-1.37,1.19-1.36.09-2.56-.86-2.79-2.2,0-.59.31-1.01,1-1.6,1.26-.88,2.31-2.04,3.07-3.39.96-1.92,1.64-3.52,1.87-4.12.2-.62.16-1.28-.09-1.87-1.8-5.22-4.26-10.85-5.63-14.15-1.01-2.52-1.42-3.06-3.94-3.39v-1.24h9.25v1.24c-2.1.32-2.33.77-1.74,2.47l4.44,11.26c1.28-3.16,3.11-8.24,4.08-11.12.54-1.74.22-2.24-2.43-2.61v-1.24h8.37v1.25Z"/>
          </g>
          <g id="Group_8376" data-name="Group 8376">
            <path id="Path_7406" data-name="Path 7406" d="M364.6,80.89v-1.02c2.44-.25,2.56-.45,2.55-3.47v-12.33c-2.37,5.48-5.56,12.71-7.28,16.82h-.92c-1.57-4.02-4.36-11.03-6.64-16.53-.45,10.22-.47,12.37-.47,13.25.03,1.7.72,2.04,2.94,2.26v1.02h-7.51v-1.02c1.78-.17,2.55-.52,2.8-2.29.15-1.13.24-2.59.99-13.29.11-1.55-.15-2.24-2.84-2.48v-1.02h6.09l6.37,14.58,6.6-14.58h6.02v1.01c-2.56.27-2.86.54-2.8,2.88l.19,11.73c.07,3.02.18,3.16,2.79,3.47v1.02h-8.85Z"/>
            <path id="Path_7407" data-name="Path 7407" d="M392.52,75.77c-.17.83-1.02,4.21-1.31,5.11h-15.59v-1c2.85-.25,3.04-.46,3.04-3.03v-12c0-2.69-.36-2.86-2.55-3.06v-1.02h9.78c3.08,0,4.23-.03,4.63-.06.04.66.17,3.1.3,4.88l-1.08.16c-.23-.94-.61-1.83-1.15-2.64-.53-.8-1.08-1-2.78-1h-2.43c-1.08,0-1.17.07-1.17,1.05v6.64h3.21c2.01,0,2.24-.46,2.67-2.62h1.08v6.65h-1.08c-.45-2.26-.7-2.6-2.69-2.6h-3.18v5.7c0,2.16.36,2.58,2.09,2.62h2.52c1.8,0,2.2-.25,2.88-1.08.73-.91,1.33-1.92,1.8-2.99l1.01.29Z"/>
            <path id="Path_7408" data-name="Path 7408" d="M410.98,65.91c-.25-.99-.65-1.94-1.17-2.82-.53-.72-.8-.97-2.57-.97h-2.49v14.77c0,2.52.28,2.76,3.12,2.97v1.03h-9.69v-1.02c2.74-.2,3.01-.44,3.01-2.97v-14.77h-2.32c-1.72,0-2.21.23-2.77,1.06-.49.87-.88,1.79-1.15,2.74h-1.08c.2-2.09.41-4.29.48-5.88h.83c.47.72.83.74,1.73.74h12.31c.66.09,1.31-.2,1.7-.74h.82c.02,1.37.15,3.86.3,5.77l-1.04.09Z"/>
            <path id="Path_7409" data-name="Path 7409" d="M433.3,81.09c-.29,0-.64,0-1.03-.04-3.16-.18-4.32-.9-5.46-2.48-1.2-1.64-2.2-3.56-3.22-5.29-.53-.9-.95-1.08-2.21-1.08h-.83v4.68c0,2.56.33,2.74,2.71,3.01v.99h-8.89v-1.02c2.45-.26,2.69-.45,2.69-3.01v-12.08c0-2.52-.32-2.76-2.69-2.98v-1.02h8.47c1.84-.17,3.69.22,5.3,1.12,1.37.91,2.16,2.46,2.09,4.1-.05,2.4-1.64,4.48-3.94,5.16.5.94,1.77,2.97,2.69,4.39.72,1.12,1.52,2.19,2.39,3.2.53.67,1.26,1.16,2.09,1.39l-.17.96ZM421.69,71c1.13.11,2.27-.19,3.2-.85,1.09-.91,1.68-2.29,1.57-3.71.3-2.15-1.2-4.14-3.36-4.44-.23-.03-.47-.04-.7-.03-.53-.07-1.06.04-1.52.31-.25.19-.33.54-.33,1.25v7.48h1.13Z"/>
            <path id="Path_7410" data-name="Path 7410" d="M434.55,80.89v-1.02c2.44-.24,2.7-.4,2.7-3.01v-12.02c0-2.63-.28-2.82-2.7-3.04v-1.02h8.98v1.02c-2.44.24-2.71.41-2.71,3.04v12.01c0,2.61.27,2.75,2.71,3.01v1.03h-8.98Z"/>
            <path id="Path_7411" data-name="Path 7411" d="M465.19,75.73c-.47,1.65-1.05,3.26-1.72,4.84-1.86.46-3.76.72-5.68.78-5.67.63-10.78-3.45-11.42-9.12-.04-.39-.06-.78-.06-1.17,0-6.36,4.84-10.69,12.04-10.69,1.96.06,3.92.31,5.84.72.14,1.44.36,3.52.59,4.97l-1.11.21c-.26-1.81-1.42-3.35-3.08-4.11-.94-.35-1.94-.52-2.94-.5-4.77,0-7.23,3.76-7.23,8.73,0,5.8,2.99,9.63,7.57,9.63,2.85,0,4.5-1.4,6.13-4.67l1.09.4Z"/>
            <path id="Path_7412" data-name="Path 7412" d="M479.3,65.7c-.57-2.01-1.44-4.15-4.32-4.15-1.63-.08-3.02,1.18-3.1,2.81,0,.12,0,.24,0,.35,0,1.9,1.25,2.94,3.9,4.3,3.49,1.76,5.37,3.29,5.37,6.3-.19,3.54-3.22,6.26-6.76,6.07-.13,0-.26-.02-.39-.03-1.7-.05-3.39-.39-4.98-.99-.21-.78-.66-3.49-.88-5.04l1.08-.27c.62,2.01,2.16,5.07,5.3,5.07,1.71.11,3.18-1.19,3.29-2.9,0-.15,0-.29,0-.44,0-2.06-1.19-3.07-3.84-4.5-3.24-1.74-5.2-3.24-5.2-6.32s2.42-5.6,6.81-5.6c1.44.05,2.87.24,4.27.57.12,1.14.3,2.57.54,4.55l-1.05.24Z"/>
          </g>
          <g id="Group_8377" data-name="Group 8377">
            <path id="Path_7413" data-name="Path 7413" d="M489.78,59.29c-.09-.37-.24-.72-.43-1.04-.19-.27-.3-.36-.95-.36h-.92v5.47c0,.93.1,1.03,1.15,1.08v.36h-3.6v-.36c1.02-.07,1.12-.16,1.12-1.08v-5.48h-.86c-.64,0-.82.09-1.03.39-.18.32-.32.66-.43,1.02h-.39c.07-.78.15-1.6.18-2.18h.31c.18.27.31.27.64.27h4.57c.24.03.49-.07.63-.27h.31c0,.5.05,1.44.1,2.14l-.39.04Z"/>
            <path id="Path_7414" data-name="Path 7414" d="M497.18,64.83v-.36c.9-.09.95-.17.94-1.29v-4.58c-.88,2.03-2.06,4.72-2.69,6.23h-.36c-.59-1.49-1.62-4.09-2.47-6.13-.17,3.79-.18,4.59-.18,4.91,0,.63.27.76,1.08.84v.36h-2.79v-.36c.66-.06.95-.19,1.04-.85.06-.41.08-.96.36-4.93.04-.57-.06-.83-1.05-.92v-.36h2.25l2.36,5.4,2.45-5.4h2.22v.36c-.94.1-1.08.2-1.03,1.08l.07,4.35c.03,1.12.07,1.17,1.03,1.29v.34h-3.25Z"/>
          </g>
        </g>
        <g id="Group_8379" data-name="Group 8379">
          <path id="Path_7415" data-name="Path 7415" d="M230.36,110.63c-1.41,1.17-3.22,1.75-5.04,1.6h-3.7v8.07h-2.52v-19.33h6.24c1.8-.13,3.58.44,4.97,1.58,2.25,2.21,2.28,5.81.07,8.06,0,0-.01.01-.02.02h0ZM228.44,109.23c.69-.68,1.06-1.64.99-2.61,0-2.38-1.37-3.57-4.1-3.57h-3.72v7.1h3.72c1.11.09,2.22-.24,3.11-.92Z"/>
          <path id="Path_7416" data-name="Path 7416" d="M236.17,105.53c.82-1.47,2.02-2.69,3.48-3.53,1.49-.86,3.18-1.3,4.9-1.28,1.95-.04,3.87.49,5.52,1.52,1.58,1.04,2.78,2.55,3.43,4.32h-3.02c-.48-1.11-1.29-2.05-2.31-2.71-1.09-.65-2.34-.98-3.6-.94-1.28-.02-2.54.3-3.64.94-1.08.63-1.95,1.56-2.52,2.67-1.22,2.56-1.22,5.54,0,8.1.57,1.11,1.44,2.04,2.52,2.67,1.1.65,2.35.98,3.63.97,1.26.03,2.51-.29,3.6-.92,1.03-.64,1.84-1.57,2.33-2.68h3.01c-.65,1.76-1.86,3.26-3.43,4.29-1.66,1.03-3.57,1.55-5.52,1.51-1.72.02-3.41-.42-4.9-1.26-1.46-.83-2.66-2.04-3.48-3.51-1.7-3.18-1.7-6.99,0-10.16h.01Z"/>
          <path id="Path_7417" data-name="Path 7417" d="M260.46,100.97v19.33h-2.52v-19.33h2.52Z"/>
          <path id="Path_7418" data-name="Path 7418" d="M285.04,102.14c1.5.74,2.73,1.91,3.55,3.37,1.65,3.23,1.65,7.06,0,10.3-.81,1.45-2.05,2.61-3.55,3.33-1.71.8-3.59,1.2-5.48,1.15h-6.02v-19.33h6.02c1.89-.05,3.77.36,5.48,1.17ZM285.27,116.23c1.38-1.51,2.1-3.52,1.97-5.56.4-3.83-2.39-7.26-6.22-7.66-.49-.05-.98-.05-1.46,0h-3.49v15.2h3.49c2.09.15,4.16-.57,5.71-1.98h0Z"/>
          <path id="Path_7419" data-name="Path 7419" d="M296.55,119.81c-.94-.4-1.76-1.05-2.37-1.88-.58-.82-.89-1.79-.89-2.79h2.69c.08.88.47,1.7,1.12,2.3.81.67,1.84,1,2.88.92,1.03.06,2.04-.26,2.85-.9.68-.57,1.06-1.43,1.04-2.32.03-.66-.19-1.3-.62-1.8-.41-.47-.94-.83-1.52-1.06-.81-.3-1.63-.56-2.47-.77-1.04-.26-2.07-.59-3.06-1-.78-.34-1.46-.88-1.97-1.57-.59-.84-.88-1.86-.82-2.88-.02-.99.26-1.97.8-2.8.56-.83,1.34-1.49,2.26-1.89,1.05-.46,2.19-.68,3.34-.66,1.6-.07,3.17.41,4.45,1.37,1.14.87,1.85,2.18,1.95,3.6h-2.77c-.12-.78-.53-1.49-1.17-1.96-.78-.6-1.74-.9-2.71-.85-.93-.04-1.84.25-2.58.82-.67.56-1.04,1.41-.99,2.29-.03.63.18,1.25.59,1.72.4.45.91.8,1.47,1.02.8.3,1.62.56,2.45.78,1.05.28,2.08.63,3.08,1.05.79.35,1.47.89,1.99,1.57.59.84.88,1.86.83,2.88,0,.94-.26,1.86-.75,2.67-.54.87-1.3,1.57-2.22,2.02-1.07.54-2.27.81-3.47.77-1.18.03-2.35-.19-3.43-.65Z"/>
          <path id="Path_7420" data-name="Path 7420" d="M313.52,119.81c-.94-.4-1.76-1.05-2.37-1.88-.58-.82-.89-1.79-.89-2.79h2.68c.08.88.48,1.7,1.13,2.3.81.67,1.84,1,2.88.92,1.03.06,2.04-.26,2.85-.9.68-.57,1.06-1.43,1.03-2.32.03-.66-.19-1.3-.61-1.8-.42-.47-.94-.83-1.52-1.06-.81-.3-1.63-.56-2.47-.77-1.04-.26-2.07-.59-3.06-1-.78-.34-1.46-.88-1.97-1.57-.59-.84-.88-1.86-.82-2.88-.02-.99.26-1.97.8-2.8.56-.83,1.34-1.49,2.26-1.89,1.05-.46,2.19-.68,3.34-.66,1.6-.07,3.17.42,4.45,1.37,1.14.87,1.85,2.18,1.95,3.6h-2.77c-.12-.78-.53-1.49-1.17-1.96-.78-.6-1.74-.9-2.71-.85-.93-.04-1.84.25-2.58.82-.67.56-1.05,1.41-1,2.29-.03.63.19,1.24.59,1.72.41.45.91.8,1.48,1.02.8.3,1.62.56,2.45.78,1.05.28,2.08.63,3.08,1.05.79.35,1.47.89,1.99,1.57.59.84.88,1.86.83,2.88,0,.94-.26,1.86-.75,2.67-.54.87-1.3,1.57-2.22,2.02-1.07.54-2.27.81-3.47.77-1.18.03-2.35-.19-3.43-.65Z"/>
          <path id="Path_7421" data-name="Path 7421" d="M351.86,100.97l-7.3,19.33h-2.91l-7.3-19.33h2.69l6.07,16.67,6.07-16.67h2.67Z"/>
          <path id="Path_7422" data-name="Path 7422" d="M366.75,116h-8.43l-1.55,4.3h-2.66l6.99-19.22h2.91l6.96,19.22h-2.67l-1.56-4.3ZM366.03,113.94l-3.49-9.76-3.5,9.76h6.99Z"/>
          <path id="Path_7423" data-name="Path 7423" d="M377.23,118.24h6.75v2.06h-9.27v-19.33h2.52v17.27Z"/>
          <path id="Path_7424" data-name="Path 7424" d="M389.9,100.97v19.33h-2.52v-19.33h2.52Z"/>
          <path id="Path_7425" data-name="Path 7425" d="M406.38,102.14c1.49.74,2.73,1.92,3.55,3.37,1.64,3.24,1.64,7.06,0,10.3-.82,1.44-2.05,2.61-3.55,3.33-1.71.8-3.59,1.2-5.48,1.15h-6.02v-19.33h6.02c1.89-.05,3.77.36,5.48,1.17ZM406.61,116.23c1.38-1.51,2.1-3.52,1.97-5.56.12-2.07-.6-4.1-1.99-5.63-1.54-1.43-3.6-2.16-5.69-2.02h-3.5v15.2h3.5c2.1.15,4.16-.57,5.71-1.98h0Z"/>
          <path id="Path_7426" data-name="Path 7426" d="M426.62,116h-8.43l-1.55,4.3h-2.66l6.99-19.22h2.91l6.96,19.22h-2.67l-1.56-4.3ZM425.89,113.94l-3.49-9.76-3.5,9.76h6.99Z"/>
          <path id="Path_7427" data-name="Path 7427" d="M446.47,100.97v2.05h-5.26v17.3h-2.52v-17.3h-5.3v-2.05h13.08Z"/>
          <path id="Path_7428" data-name="Path 7428" d="M452.79,103.02v6.46h7.04v2.08h-7.04v6.65h7.88v2.09h-10.4v-19.36h10.4v2.08h-7.88Z"/>
          <path id="Path_7429" data-name="Path 7429" d="M476.68,102.14c1.5.74,2.73,1.91,3.55,3.37,1.65,3.23,1.65,7.06,0,10.3-.81,1.45-2.05,2.61-3.55,3.33-1.71.81-3.59,1.2-5.48,1.15h-6.02v-19.33h6.02c1.89-.05,3.77.35,5.48,1.17ZM476.92,116.23c1.38-1.51,2.09-3.52,1.97-5.56.4-3.83-2.37-7.25-6.2-7.66-.49-.05-.99-.05-1.48,0h-3.49v15.2h3.49c2.09.15,4.16-.57,5.71-1.98h0Z"/>
        </g>
      </g>
    </g>
  </g>
</svg>