<?xml version="1.0" encoding="UTF-8"?>
<svg id="Layer_2" data-name="Layer 2" xmlns="http://www.w3.org/2000/svg" viewBox="0 0 237.48 191.81">
  <defs>
    <style>
      .cls-1 {
        fill: #303f65;
      }
    </style>
  </defs>
  <g id="Layer_1-2" data-name="Layer 1">
    <g>
      <path class="cls-1" d="M59.92,51.43s-.32-1.29,1.36-1.75c0,0,.92-.23,1.67.28,0,0,2.89,2.46,8.31,15.64,0,0,5.05,12.49,11.37,15.62,0,0,4.82,3.14,9.18,2.82,0,0,4.68-.43,1.84-2.73,0,0-2.48-1.81-4.53-2.62,0,0-12.08-3.19-13.11-11.41,0,0-.96-6.09,2.2-5.92,0,0,1.88,0,3.61,4.36,0,0,1.35,4.96,11.9,7.62,0,0,9.42,2.23,10.88,5.42,0,0,2.55,3.54,3.61,12.68,0,0,.67-13,7.16-15.87,0,0,9.67-2.87,12.65-4.14,0,0,5.7-2.09,6.98-6.7,0,0,2.59-5.74,5.03-2.37,0,0,2.02,6.16-2.6,10.68,0,0-2.23,3.08-10.26,5.53,0,0-6.11,2.39-5.1,4.57,0,0,5.42,3.4,14.08-3.56,0,0,4.36-3.24,8.4-12.86,0,0,5.05-12.87,9.3-17.09,0,0,2.16-1.12,2.48,1.96,0,0-4.57,12.01-6.55,21.79,0,0-1.98,13.6-12.26,20.41,0,0-6.09,4.75-17.93,7.58,0,0-5.24,5.53-5.74,18.78,0,0-1.35,4.61-6.24,4.53,0,0-2.9-.35-5.24-4.32,0,0,.78-10.75-5.6-18.99,0,0-20.99-3.88-27.05-18.86,0,0-2.8-4.8-5.18-17.75-.02-.1-.05-.21-.08-.31-.47-1.43-4.23-12.5-4.53-13.01Z"/>
      <path class="cls-1" d="M82.07,52.27s-1.83,1.94-.35,4.36c0,0,2.39,4.54,6.46,2.21,0,0,.61.05-1.43-2.02,0,0,5.77,4.49,8.16,5.31,0,0,11.42,2.34,22.05-4.93,0,0,7.09-5.71,8.08-25.26,0,0-4.41-.18-5.1-4.8,0,0-.16-2.76-1.65-3.72,0,0-3.83-3.67-2.5-7.23,0,0-1.01-2.23-7.65-2.18,0,0-7.07.58-9.14-.64,0,0-8.66-1.38-13.39,6.43,0,0-2.28,5-1.97,8.02,0,0-1.59-1.01-1.81-1.01,0,0,.11-3.08.69-4.41,0,0-1.33-3.88,1.06-7.55,0,0,2.55-3.93,9.3-6.38,0,0-1.28-4.94,2.44-7.23,0,0,3.56-2.82,13.5,0,0,0,14.08,3.19,19.71,8.66,0,0-.37-4.04-4.89-4.57,0,0,6.11-3.35,9.78,2.02,0,0,3.67,4.68,3.83,12.91,0,0-3.93-3.72-6.59-2.71,0,0,4.04,1.86,3.29,3.88,0,0-2.55-4.09-6.16-1.91,0,0,3.72,2.82,5.47,6.7,0,0-4.57-2.18-5.26,3.72,0,0-.37,3.29,3.77,2.18,0,0-.94,1.19-4.41,3.91,0,0,.57,1.7,3.05.67,0,0,1.03,3.4,3.33,2.02,0,0,1.74-1.49,2.16-2.55,0,0,.14,3.05,1.52,1.98,0,0,.46-.74.64-.74,0,0,2.55,5.24,2.34,10.42,0,0,.11,5.21-1.31,7.47,0,0,.67,4-4,4.82,0,0-4.14.28-4.64-3.83,0,0-4.62,11.9-23.01,14.14,0,0-6.78.89-11-4.25,0,0-3.01-4.43-7.12-3.01,0,0-3.68,2.13-7.05-.67,0,0-2.8-2.02-2.48-6.16,0,0,.48-2.69,2.28-4.07Z"/>
      <g>
        <path class="cls-1" d="M6.84,179.06v-21.45H0v-2.74h16.56v2.74h-6.81v21.45h-2.91Z"/>
        <path class="cls-1" d="M24.96,153.9l11.01,25.15h-3.12l-3.14-7.42h-9.45l-3.14,7.42h-3.12l10.97-25.15ZM24.96,160.27l-3.85,8.91h7.7l-3.85-8.91Z"/>
        <path class="cls-1" d="M38.46,179.06v-24.2h12.76v2.63h-9.88v6.94h9.88v2.68h-9.88v11.95h-2.88Z"/>
        <path class="cls-1" d="M55.65,179.06v-24.2h2.88v24.2h-2.88Z"/>
        <path class="cls-1" d="M64.37,179.06v-24.2h4.64c3.44,0,5.86.17,7.26.52s2.64.93,3.69,1.74c1.39,1.07,2.44,2.44,3.16,4.1.72,1.66,1.07,3.58,1.07,5.75s-.36,4.07-1.07,5.73c-.71,1.66-1.77,3.02-3.17,4.09-1.06.82-2.26,1.4-3.61,1.74-1.35.35-3.45.52-6.31.52h-5.69ZM67.28,176.35h1.83c2.97,0,5.04-.13,6.18-.39,1.15-.26,2.1-.7,2.86-1.33.99-.83,1.75-1.89,2.26-3.2.52-1.31.78-2.8.78-4.49s-.26-3.19-.77-4.47c-.51-1.28-1.27-2.34-2.27-3.18-.76-.64-1.73-1.09-2.9-1.36-1.17-.27-3.22-.4-6.14-.4h-1.83v18.82Z"/>
        <path class="cls-1" d="M95.97,153.9l11.01,25.15h-3.12l-3.14-7.42h-9.45l-3.14,7.42h-3.12l10.97-25.15ZM95.97,160.27l-3.85,8.91h7.7l-3.85-8.91Z"/>
        <path class="cls-1" d="M119.46,179.06v-24.2h5.69c1.62,0,2.81.09,3.56.27.75.18,1.42.49,1.99.93.72.56,1.27,1.31,1.67,2.26.4.94.59,1.99.59,3.13,0,1.98-.55,3.49-1.66,4.52-1.11,1.03-2.73,1.55-4.87,1.55h-.51l9.24,11.54h-3.65l-8.83-11.54h-.41v11.54h-2.81ZM122.27,157.29v8.1h2.2c2.25,0,3.75-.29,4.51-.87s1.14-1.59,1.14-3.03c0-1.55-.39-2.64-1.17-3.26-.78-.62-2.28-.93-4.48-.93h-2.2Z"/>
        <path class="cls-1" d="M145.22,153.9l11.01,25.15h-3.12l-3.14-7.42h-9.45l-3.14,7.42h-3.12l10.97-25.15ZM145.22,160.27l-3.85,8.91h7.7l-3.85-8.91Z"/>
        <path class="cls-1" d="M183.17,181.39h-3.55l-3.22-3.45c-.96.56-2.01.98-3.15,1.26s-2.38.41-3.72.41-2.67-.2-3.91-.6c-1.24-.4-2.38-.99-3.43-1.78-1.7-1.24-2.98-2.74-3.86-4.49-.88-1.75-1.31-3.67-1.31-5.76,0-1.69.32-3.3.97-4.84.65-1.54,1.59-2.92,2.81-4.13,1.23-1.19,2.63-2.1,4.2-2.74,1.56-.63,3.21-.95,4.94-.95s3.33.28,4.84.84c1.51.56,2.87,1.4,4.1,2.51,1.3,1.18,2.29,2.57,2.98,4.17s1.03,3.32,1.03,5.16c0,1.94-.37,3.71-1.11,5.31-.74,1.6-1.81,2.97-3.22,4.09l4.61,4.97ZM172.98,170.43l3.58,3.85c1.03-.82,1.83-1.85,2.39-3.09.56-1.24.83-2.61.83-4.08,0-.99-.12-1.94-.35-2.83-.23-.9-.57-1.71-1.01-2.44-.91-1.51-2.11-2.68-3.58-3.5-1.48-.83-3.11-1.24-4.9-1.24-1.33,0-2.6.25-3.81.74-1.21.5-2.27,1.21-3.2,2.13-.93.93-1.64,1.99-2.13,3.2-.5,1.21-.74,2.48-.74,3.81,0,1.71.34,3.24,1.03,4.61.69,1.37,1.72,2.55,3.1,3.54.78.57,1.64,1.01,2.58,1.3.94.29,1.92.44,2.94.44.9,0,1.74-.09,2.51-.26.77-.18,1.49-.45,2.15-.83l-4.94-5.34h3.55Z"/>
        <path class="cls-1" d="M187.58,179.06v-24.2h12.76v2.63h-9.88v6.94h9.88v2.68h-9.88v9.27h9.88v2.68h-12.76Z"/>
        <path class="cls-1" d="M205.22,179.06v-24.2h12.76v2.63h-9.88v6.94h9.88v2.68h-9.88v9.27h9.88v2.68h-12.76Z"/>
        <path class="cls-1" d="M222.85,179.06v-24.2h5.04c1.77,0,3.08.09,3.93.27s1.57.49,2.17.93c.77.57,1.37,1.31,1.79,2.21.42.9.64,1.88.64,2.95,0,1.28-.31,2.35-.92,3.21-.61.86-1.5,1.46-2.67,1.8,1.43.22,2.56.86,3.4,1.93.83,1.06,1.25,2.4,1.25,4.02,0,.97-.18,1.9-.53,2.78-.35.88-.84,1.64-1.47,2.26-.68.67-1.53,1.15-2.53,1.42-1,.28-2.69.41-5.06.41h-5.04ZM225.66,157.36v8.1h2.23c2.05,0,3.49-.3,4.33-.89.84-.6,1.26-1.6,1.26-3.01,0-1.55-.39-2.64-1.17-3.26-.78-.62-2.25-.93-4.42-.93h-2.23ZM225.66,167.72v8.83h2.23c1.53,0,2.64-.06,3.31-.18.68-.12,1.22-.33,1.63-.63.5-.35.89-.84,1.17-1.47.29-.63.43-1.32.43-2.08,0-.88-.17-1.65-.51-2.3-.34-.65-.84-1.16-1.49-1.52-.39-.23-.83-.4-1.34-.5-.51-.1-1.29-.15-2.36-.15h-3.07Z"/>
      </g>
      <g>
        <path class="cls-1" d="M100.8,152.1v-8.78h-2.64v-.82h6.17v.82h-2.65v8.78h-.87Z"/>
        <path class="cls-1" d="M105.78,152.1v-9.6h.87v3.9h5.23v-3.9h.87v9.6h-.87v-4.96h-5.23v4.96h-.87Z"/>
        <path class="cls-1" d="M115.14,152.1v-9.6h4.76v.82h-3.88v3h3.88v.82h-3.88v4.14h3.88v.82h-4.76Z"/>
      </g>
      <g>
        <path class="cls-1" d="M71.15,191.56v-8.78h4.35v.75h-3.55v2.75h3.42v.75h-3.42v4.54h-.8Z"/>
        <path class="cls-1" d="M86.29,187.18c0,.62-.12,1.21-.35,1.77-.24.56-.58,1.05-1.02,1.49-.45.44-.96.77-1.53,1-.57.23-1.17.34-1.8.34s-1.23-.12-1.8-.34c-.57-.23-1.07-.56-1.52-1-.45-.44-.79-.94-1.02-1.5-.23-.55-.35-1.14-.35-1.76s.12-1.22.35-1.78.58-1.06,1.02-1.5c.44-.44.94-.77,1.51-.99.56-.22,1.17-.34,1.81-.34s1.26.11,1.82.34,1.07.55,1.51.99c.45.44.79.94,1.02,1.5.23.56.35,1.15.35,1.78ZM81.59,191.08c.52,0,1.01-.1,1.48-.29.46-.19.88-.47,1.25-.84.36-.37.64-.79.84-1.27.19-.47.29-.97.29-1.5s-.1-1.03-.29-1.5c-.19-.47-.47-.89-.84-1.27-.36-.37-.78-.65-1.25-.84-.47-.19-.96-.29-1.49-.29s-1.01.1-1.47.29c-.46.19-.88.47-1.25.84-.37.38-.65.8-.84,1.27-.19.47-.29.96-.29,1.5s.1,1.03.29,1.5c.19.47.47.89.84,1.27.37.37.78.65,1.24.84.46.19.95.29,1.48.29Z"/>
        <path class="cls-1" d="M88.02,182.77h.79v5.73c0,.87.2,1.51.59,1.93.4.42,1,.63,1.82.63s1.4-.21,1.8-.63c.4-.42.59-1.07.59-1.93v-5.73h.8v5.48c0,1.19-.26,2.07-.79,2.66s-1.33.88-2.4.88-1.88-.29-2.41-.88-.79-1.47-.79-2.66v-5.48Z"/>
        <path class="cls-1" d="M96.56,191.56v-9.15l6.22,7.35v-6.98h.74v9.04l-6.22-7.36v7.1h-.75Z"/>
        <path class="cls-1" d="M105.71,191.56v-8.78h1.37c1.22,0,2.09.06,2.6.18s.95.33,1.32.62c.49.39.86.89,1.12,1.5.26.61.38,1.31.38,2.1s-.13,1.49-.38,2.1c-.26.61-.62,1.1-1.1,1.47-.38.29-.81.5-1.3.62-.49.12-1.27.19-2.36.19h-1.64ZM106.51,190.87h1.12c.91,0,1.55-.05,1.93-.15.38-.1.7-.28.97-.52.37-.34.65-.77.83-1.28.19-.51.28-1.1.28-1.75s-.1-1.26-.29-1.78-.47-.93-.84-1.26c-.28-.25-.62-.43-1.03-.53-.4-.1-1.11-.16-2.12-.16h-.86v7.43Z"/>
        <path class="cls-1" d="M112.86,191.56l3.86-9.13,3.7,9.13h-.87l-1.12-2.98h-3.59l-1.16,2.98h-.81ZM115.1,187.9h3.06l-1.5-3.82-1.56,3.82Z"/>
        <path class="cls-1" d="M122.28,191.56v-8.03h-2.42v-.75h5.64v.75h-2.42v8.03h-.8Z"/>
        <path class="cls-1" d="M126.83,191.56v-8.78h.8v8.78h-.8Z"/>
        <path class="cls-1" d="M138.8,187.18c0,.62-.12,1.21-.35,1.77-.24.56-.58,1.05-1.02,1.49-.45.44-.96.77-1.53,1-.57.23-1.17.34-1.8.34s-1.23-.12-1.8-.34c-.57-.23-1.07-.56-1.52-1-.45-.44-.79-.94-1.02-1.5-.23-.55-.35-1.14-.35-1.76s.12-1.22.35-1.78.58-1.06,1.02-1.5c.44-.44.94-.77,1.51-.99.56-.22,1.17-.34,1.81-.34s1.26.11,1.82.34,1.07.55,1.51.99c.45.44.79.94,1.02,1.5.23.56.35,1.15.35,1.78ZM134.1,191.08c.52,0,1.01-.1,1.48-.29.46-.19.88-.47,1.25-.84.36-.37.64-.79.84-1.27.19-.47.29-.97.29-1.5s-.1-1.03-.29-1.5c-.19-.47-.47-.89-.84-1.27-.36-.37-.78-.65-1.25-.84-.47-.19-.96-.29-1.49-.29s-1.01.1-1.47.29c-.46.19-.88.47-1.25.84-.37.38-.65.8-.84,1.27-.19.47-.29.96-.29,1.5s.1,1.03.29,1.5c.19.47.47.89.84,1.27.37.37.78.65,1.24.84.46.19.95.29,1.48.29Z"/>
        <path class="cls-1" d="M140.57,191.56v-9.15l6.22,7.35v-6.98h.74v9.04l-6.22-7.36v7.1h-.75Z"/>
      </g>
    </g>
  </g>
</svg>