<?xml version="1.0" encoding="UTF-8"?>
<svg id="Layer_2" data-name="Layer 2" xmlns="http://www.w3.org/2000/svg" viewBox="0 0 280.15 196.9">
  <defs>
    <style>
      .cls-1 {
        fill: #76cd0d;
      }

      .cls-2 {
        fill: #005128;
      }

      .cls-3 {
        fill: #343434;
        font-family: Inter-Bold, Inter;
        font-size: 27.7px;
        font-variation-settings: 'opsz' 14, 'wght' 700;
        font-weight: 700;
      }

      .cls-4 {
        fill: #dcdce6;
      }

      .cls-5 {
        fill: #00b67a;
      }

      .cls-6 {
        fill: #191919;
      }

      .cls-7 {
        fill: #fff;
        stroke: #00b67a;
        stroke-miterlimit: 10;
        stroke-width: 2.28px;
      }
    </style>
  </defs>
  <g id="Layer_1-2" data-name="Layer 1">
    <g>
      <rect class="cls-7" x="1.14" y="1.14" width="277.87" height="194.62" rx="22.46" ry="22.46"/>
      <g>
        <g>
          <path id="Shape" class="cls-6" d="M80.59,60.34h25.56v4.92h-9.83v26.55h-5.9v-26.55h-9.83v-4.92h0ZM104.68,68.69h4.92v4.42h0c0-.49.49-.98.98-1.97s.98-.98,1.47-1.47,1.47-.98,1.97-.98c.49-.49,1.47-.49,2.46-.49h1.47v4.92h-1.97c-.98,0-1.47,0-2.46.49-.98.49-1.47.98-1.97,1.47-.49.49-.98,1.47-1.47,2.46-.49.98-.49,1.97-.49,3.44v10.81h-4.92v-23.1h0ZM141.06,91.8h-4.92v-2.95h0c-.49.98-1.47,1.97-2.95,2.95-.98.49-2.46.98-3.93.98-2.95,0-4.92-.49-6.39-2.46-1.47-1.97-1.97-3.93-1.97-6.88v-14.26h4.92v13.76c0,1.97.49,3.44.98,4.42.98.98,1.97,1.47,3.44,1.47.98,0,1.97,0,2.46-.49.49-.49,1.47-.98,1.47-1.47.49-.49.98-.98.98-1.97s.49-1.47.49-2.46v-13.27h4.92v22.61h.49ZM149.41,84.42c0,1.47.49,2.46,1.47,2.95.98.49,1.97.98,3.44.98h1.47c.49,0,.98,0,1.47-.49.49,0,.98-.49,1.47-.98s.49-.98.49-1.47-.49-.98-.49-1.47c-.49-.49-.98-.49-1.47-.98-.49,0-1.47-.49-2.46-.49s-1.97-.49-2.46-.49c-.98,0-1.97-.49-2.46-.98s-1.47-.49-2.46-.98c-.49-.49-1.47-.98-1.47-1.97-.49-.98-.49-1.97-.49-2.95,0-1.47.49-2.46.98-2.95s1.47-1.47,2.46-1.97,1.97-.98,2.95-.98,2.46-.49,3.44-.49,2.46,0,3.44.49c.98,0,1.97.49,2.95.98.98.49,1.47,1.47,1.97,1.97.49.98.98,1.97.98,3.44h-5.41c0-.98-.98-1.97-1.47-2.46-1.47-.49-2.46-.98-3.44-.98h-1.47c-.49,0-.98,0-1.47.49-.49,0-.98.49-.98.49q-.49.49-.49.98c0,.49,0,.98.49,1.47.49.49.98.49,1.47.98.49,0,1.47.49,2.46.49s1.97.49,2.95.49,1.97.49,2.46.98c.98.49,1.47.49,2.46.98.98.49,1.47.98,1.47,1.97.49.98.49,1.47.49,2.95s-.49,2.46-.98,3.44c-.49.98-1.47,1.47-2.46,2.46-.49.98-1.47,1.47-2.46,1.47s-2.46.49-3.44.49c-1.47,0-2.95,0-3.93-.49s-2.46-.98-2.95-1.47c-.98-.49-1.47-1.47-1.97-2.46-.98-.98-1.47-1.97-1.47-3.44h4.92ZM166.13,68.69h3.93v-6.39h4.92v6.88h4.42v3.93h-4.42v13.76q0,.49.49.98l.49.49h3.44v3.44h-2.95c-1.47,0-2.46,0-2.95-.49-.98,0-1.47-.49-1.97-.98-.49-.49-.98-.98-.98-1.97,0-.49-.49-1.47-.49-2.46v-13.27h-3.93v-3.93h0ZM182.84,68.69h4.92v3.44h0c.49-1.47,1.47-2.46,2.95-2.95,1.47-.49,2.46-.98,3.93-.98,1.97,0,3.44.49,4.92.98,1.47.49,2.46,1.47,3.44,2.46s1.47,2.46,1.97,3.93c.49,1.47.49,2.95.49,4.92,0,1.47,0,2.95-.49,4.42s-.98,2.46-1.97,3.93c-.98.98-1.97,1.97-2.95,2.46-1.47.49-2.46.98-4.42.98h-1.97c-.49,0-1.47-.49-1.97-.49-.49-.49-1.47-.49-1.97-.98-.49-.49-.98-.98-1.47-1.47h0v11.31h-4.92v-31.95h-.49ZM200.54,80.49c0-.98,0-1.97-.49-2.95s-.49-1.97-.98-2.46-.98-1.47-1.97-1.97-1.47-.49-2.95-.49c-1.97,0-3.93.49-4.92,1.97-.98,1.47-1.47,3.44-1.47,5.9,0,.98,0,2.46.49,2.95.49.98.49,1.97,1.47,2.46.49.49.98,1.47,1.97,1.47.98.49,1.47.49,2.46.49s1.97,0,2.95-.49c.98-.49,1.47-.98,1.97-1.97.49-.98.98-1.47.98-2.46,0-.49.49-1.47.49-2.46ZM209.39,60.34h4.92v4.92h-4.92v-4.92ZM209.39,68.69h4.92v23.1h-4.92v-23.1ZM218.73,60.34h4.92v31.46h-4.92v-31.46ZM238.88,92.29c-1.97,0-3.44-.49-4.92-.98-1.47-.49-2.46-1.47-3.44-2.46s-1.97-2.46-2.46-3.93-.98-2.95-.98-4.92.49-3.44.98-4.92c.49-1.47,1.47-2.95,2.46-3.93s1.97-1.97,3.44-2.46,2.95-.98,4.92-.98,3.44.49,4.92.98,2.46,1.47,3.44,2.46,1.97,2.46,2.46,3.93c.49,1.47.98,2.95.98,4.92s-.49,3.44-.98,4.92c-.49,1.47-1.47,2.95-2.46,3.93-.98.98-1.97,1.97-3.44,2.46-1.47.49-2.95.98-4.92.98ZM238.88,88.36c.98,0,1.97,0,2.95-.49.98-.49,1.47-.98,1.97-1.97.49-.98.98-1.47.98-2.46s.49-1.97.49-2.95,0-1.97-.49-2.95c0-.98-.49-1.97-.98-2.46s-.98-1.47-1.97-1.97-1.97-.49-2.95-.49-1.97,0-2.95.49c-.98.49-1.47.98-1.97,1.97-.49.98-.98,1.47-.98,2.46s-.49,1.97-.49,2.95,0,1.97.49,2.95c0,.98.49,1.97.98,2.46.49.98.98,1.47,1.97,1.97.98,0,1.97.49,2.95.49ZM252.15,68.69h3.93v-6.39h4.92v6.88h4.42v3.93h-4.42v13.76q0,.49.49.98l.49.49h3.44v3.44h-2.95c-1.47,0-2.46,0-2.95-.49-.98,0-1.47-.49-1.97-.98-.49-.49-.98-.98-.98-1.97,0-.49-.49-1.47-.49-2.46v-13.27h-3.93v-3.93h0Z"/>
          <g id="Star">
            <polygon id="Path" class="cls-5" points="74.69 60.34 51.59 60.34 44.7 38.21 37.33 60.34 14.72 60.34 32.91 73.61 26.02 95.73 44.7 81.97 62.89 95.73 56.01 73.61 74.69 60.34"/>
            <polygon id="Path-2" data-name="Path" class="cls-2" points="57.49 78.52 56.01 73.61 44.7 81.97 57.49 78.52"/>
          </g>
        </g>
        <g>
          <g>
            <path class="cls-1" d="M31.34,138.52l.22.14.14-.14.22-.14-.58.14ZM14.48,115.52v34.45h34.53v-34.45H14.48ZM36.75,137.07l2.16,6.85-7.35-5.26-7.35,5.26,2.88-8.65-7.57-5.41h9.01l2.81-8.58,2.88,8.58h9.37l-7.21,5.41-4.47,3.1,4.83-1.3ZM31.56,138.66l.14-.14.22-.14-.58.14.22.14Z"/>
            <path class="cls-1" d="M51.45,115.52v34.45h34.45v-34.45h-34.45ZM68.68,138.52l5.41-1.44,2.16,6.85-7.57-5.41ZM73.01,135.27l-4.68,3.24-7.5,5.41,2.88-8.65-7.57-5.41h9.37l2.81-8.58,2.88,8.58h9.37l-7.57,5.41Z"/>
            <path class="cls-1" d="M88.79,115.52v34.45h34.45v-34.45h-34.45ZM111.42,137.07l2.16,6.85-7.57-5.41-7.5,5.41,2.52-8.65-7.57-5.41h9.37l2.81-8.58,2.88,8.58h9.37l-7.21,5.41-4.68,3.24,5.41-1.44Z"/>
            <path class="cls-1" d="M125.77,115.52v34.45h34.45v-34.45h-34.45ZM148.4,137.07l2.16,6.85-7.57-5.41-7.5,5.41,2.88-8.65-7.57-5.41h9.37l2.81-8.58,2.88,8.58h9.37l-7.57,5.41-4.68,3.24,5.41-1.44Z"/>
            <path class="cls-4" d="M163.1,115.52v34.45h34.45v-34.45h-34.45ZM185.74,137.07l2.16,6.85-7.57-5.41-7.5,5.41,2.88-8.65-7.57-5.41h9.3l2.52-8.58,2.88,8.58h9.37l-7.21,5.41-4.68,3.24,5.41-1.44Z"/>
          </g>
          <text class="cls-3" transform="translate(213.86 144.05)"><tspan x="0" y="0">4.0</tspan></text>
        </g>
      </g>
    </g>
  </g>
</svg>