<?xml version="1.0" encoding="UTF-8"?>
<svg id="Layer_2" data-name="Layer 2" xmlns="http://www.w3.org/2000/svg" viewBox="0 0 419.11 180.71">
  <defs>
    <style>
      .cls-1 {
        fill: #11559c;
      }

      .cls-2 {
        fill: #f2a724;
      }
    </style>
  </defs>
  <g id="Layer_1-2" data-name="Layer 1">
    <g>
      <path class="cls-1" d="M169.49,96.49l-20.96,56.59-2.25-11.51c-5.24-14.1-16.58-28.9-29.76-34.95l19.23,72.71h22.74l33.79-82.96h-22.8v.12ZM187.51,179.51l13.41-83.13h21.47l-13.41,83.13h-21.47ZM286.82,98.45c-4.26-1.67-10.94-3.51-19.23-3.51-21.24,0-36.15,11.28-36.27,27.4-.12,11.97,10.65,18.6,18.77,22.57,8.41,4.09,11.17,6.68,11.17,10.31-.06,5.58-6.68,8.12-12.84,8.12-8.58,0-13.13-1.27-20.21-4.32l-2.76-1.32-2.99,18.6c5.01,2.3,14.28,4.32,23.95,4.43,22.51,0,37.19-11.17,37.36-28.38.12-9.5-5.64-16.64-18.02-22.57-7.48-3.86-12.09-6.39-12.03-10.31,0-3.45,3.86-7.14,12.32-7.14,7.02-.12,12.09,1.5,16.06,3.22l1.9.98,2.82-18.08ZM341.85,96.49h-16.58c-5.12,0-8.98,1.44-11.28,6.91l-31.84,76.17h22.51s3.68-10.25,4.55-12.49c2.48,0,24.35.06,27.46.06.69,2.88,2.59,12.44,2.59,12.44h19.98l-17.39-83.07ZM315.37,150.03c1.78-4.78,8.52-23.26,8.52-23.26-.12.23,1.78-4.78,2.88-7.94l1.44,7.14s4.15,19.86,5.01,24.01c-3.34.06-13.64.06-17.85.06h0Z"/>
      <path class="cls-2" d="M129.02,96.43h-34.6l-.23,1.44c26.89,6.91,44.67,23.78,52.04,43.75l-7.48-38.23c-1.27-5.24-5.07-6.79-9.73-6.97Z"/>
      <path class="cls-1" d="M29.48,76.34h-13.64L0,5.18l15.14-2.53,10.82,55.67L53.48,3.4h14.51L29.48,76.34ZM100.69,53.08h-32.64c-.92,9.9,3.68,14.22,11.51,14.22,6.51,0,12.26-2.42,18.42-6.33l-.06,9.9c-6.04,3.8-13.07,6.22-21.3,6.22-14.22,0-23.6-8.12-20.78-26.42,2.53-16.52,13.99-26.54,27.23-26.54,15.26,0,20.32,11.46,18.13,25.91-.12,1.04-.46,2.3-.52,3.05h0ZM81.46,32.87c-5.07,0-9.79,3.97-11.97,12.32h20.21c.35-7.89-2.13-12.32-8.23-12.32h0ZM121.93,46.86l-4.49,29.13h-12.61l7.83-50.83h10.77v10.19c4.26-5.87,10.07-10.82,18.08-11.28l.06,12.55c-8.06.58-15.2,4.78-19.63,10.25h0ZM141.34,75.99l7.83-50.83h12.61l-7.77,50.83h-12.67ZM156.88,16.64c-4.2,0-7.14-2.94-6.45-7.14.69-4.32,4.49-7.37,8.69-7.37s7.02,3.05,6.33,7.37c-.63,4.2-4.43,7.14-8.58,7.14ZM196.78,11.28c-4.32,0-6.91,1.9-7.6,6.45l-1.15,7.48h9.67v10.31h-11.28l-6.22,40.47h-12.55l6.22-40.53h-7.37l1.61-10.31h7.37l1.32-8.75c1.73-11.28,9.56-15.49,19.98-15.49,2.19,0,3.86.23,5.12.4l.12,10.31c-1.27-.12-3.11-.35-5.24-.35h0ZM196.89,75.99l7.83-50.83h12.61l-7.77,50.83h-12.67ZM212.49,16.64c-4.2,0-7.14-2.94-6.51-7.14.69-4.32,4.49-7.37,8.69-7.37s7.02,3.05,6.33,7.37c-.63,4.2-4.43,7.14-8.52,7.14h0ZM266.38,53.08h-32.64c-.86,9.9,3.68,14.22,11.51,14.22,6.51,0,12.26-2.42,18.42-6.33l-.06,9.9c-6.04,3.8-13.07,6.22-21.3,6.22-14.22,0-23.6-8.12-20.78-26.42,2.53-16.52,13.99-26.54,27.23-26.54,15.26,0,20.32,11.46,18.13,25.91-.12,1.04-.46,2.3-.52,3.05h0ZM247.15,32.87c-5.07,0-9.79,3.97-11.97,12.32h20.21c.35-7.89-2.13-12.32-8.23-12.32h0ZM303.74,75.99l.06-7.08c-4.26,4.32-9.79,8.12-16.81,8.12-10.65,0-17.96-7.89-15.31-25.04,2.94-18.94,14.62-27.35,26.42-27.35,4.84,0,8.64.86,11.51,1.9l3.8-24.53,12.95-2.01-11.69,75.99h-10.94ZM308,36.96c-2.94-1.5-5.24-2.19-9.56-2.19-6.62,0-12.32,5.35-13.99,16.52-1.5,9.9,1.96,14.51,7.54,14.51,4.61,0,8.64-2.76,12.67-6.97l3.34-21.88ZM353.31,76.51c-5.99,0-10.88-.98-15.37-2.53l8.29-54,9.79-1.5-3.57,23.37c2.88-2.53,6.85-5.12,11.69-5.12,8.12,0,13.59,6.04,11.57,19-2.19,14.16-10.94,20.78-22.39,20.78h0ZM360.39,45.14c-3.17,0-6.39,2.13-9.21,5.01l-2.71,17.44c1.9.69,3.17,1.04,5.87,1.04,6.04,0,10.31-3.68,11.63-12.44,1.15-7.37-1.32-11.05-5.58-11.05h0ZM398.27,78.12c-4.89,9.5-9.73,12.44-17.16,12.44-1.67,0-2.59-.17-3.45-.4l-.06-7.89c1.21.35,2.53.58,4.38.58,2.76,0,5.24-1.27,6.85-4.09l1.27-2.53-8.12-37.94,10.19-1.27,4.72,27.4,12.72-26.89h9.5l-20.84,40.59Z"/>
    </g>
  </g>
</svg>